<svg width="180" height="76" viewBox="0 0 180 76" fill="none" xmlns="http://www.w3.org/2000/svg">
<g clip-path="url(#clip0_19281_24732)">
<path d="M110.395 29.4516C110.499 28.9397 111.006 28.5187 111.524 28.5073L124.065 28.405L123.375 32.0114L114.058 43.559C114.898 43.5135 116.868 43.5022 118.307 43.4907L121.428 43.468L120.576 48.1098L106.722 48.2236L107.378 44.6171L116.856 32.9102C116.096 32.9557 114.726 33.0012 112.849 33.024L109.727 33.0467L110.395 29.463V29.4516ZM140.5 28.2798L127.97 28.3822C127.44 28.3822 126.933 28.8145 126.83 29.3265L126.161 32.9102L129.283 32.8875C131.16 32.8761 132.531 32.8192 133.291 32.7737L123.813 44.4806L123.156 48.087C123.213 48.087 123.271 48.087 123.328 48.0643C123.973 48.0074 126.369 47.8822 130.377 48.6786C130.699 48.7469 131.045 48.8151 131.379 48.8834C131.413 48.8834 131.436 48.8948 131.459 48.9062C133.348 49.2816 135.479 49.4978 138.576 48.9972L139.394 44.6399C135.237 45.2542 133.014 44.4237 130.285 43.8889L139.809 31.8977L140.5 28.2912V28.2798ZM107.309 28.5415L103.197 28.5756C102.714 28.6097 102.242 28.9966 102.138 29.4744V29.5199L100.998 35.6521C99.7309 43.047 96.8864 44.3781 94.2951 44.4009C93.0168 44.4009 92.6482 43.4225 93.0628 41.0106L95.3661 28.6439L91.2547 28.678C90.771 28.7121 90.3103 29.0989 90.1952 29.5654V29.6109L87.8228 42.2734C87.1548 45.9596 88.2258 48.5763 91.7154 48.7469C91.7154 48.7469 92.6137 48.7469 93.0628 48.69C95.7462 48.4511 97.8422 47.541 99.4316 45.7207C99.1206 46.8129 98.9363 47.632 98.8327 48.2691L103.727 48.2349C104.107 45.8572 104.879 41.5453 105.374 38.849L107.297 28.5415H107.309ZM86.3256 34.4006C86.3831 41.8411 82.9972 48.7469 73.6687 48.8266C71.066 48.8493 68.7857 48.6218 66.6206 48.1667L71.2733 23.0806V23.035C71.4 22.5686 71.8606 22.1818 72.3558 22.1363L76.4557 22.1021L75.3617 27.9726C75.1774 29.0079 74.901 30.0773 74.4634 31.4767C75.7648 29.9636 78.0566 28.3708 81.6037 28.3139C84.6557 28.2912 86.3025 30.2253 86.3371 34.412M81.1776 35.4018C81.1661 33.4677 80.4981 32.6713 79.1391 32.6827C76.3752 32.7055 74.1985 35.5155 72.5517 43.2633L72.2868 44.6057C72.9662 44.7536 73.6457 44.8674 74.5325 44.8674C79.1391 44.8333 81.2122 39.5202 81.1776 35.4018ZM64.4324 49.8846L63.6262 54.242C56.2325 55.4479 54.3207 52.49 48.2054 53.3318L48.8388 49.7253V49.7025C48.9079 49.4409 49.0806 49.202 49.3225 49.0427C43.3453 48.6559 40.5468 45.0949 40.5007 39.4292C40.4201 29.7361 47.0422 21.5333 56.0943 21.465C62.6588 21.4081 66.1714 24.9578 66.229 31.1581C66.3096 40.3962 60.6088 47.4385 53.1921 48.8266C57.0962 49.1678 59.2729 50.6469 64.4324 49.8733M51.2688 44.4009C56.7508 44.3554 60.7931 38.5987 60.7355 31.7953C60.7125 28.3481 59.008 26.0727 55.3687 26.0954C49.5989 26.1409 45.9251 32.1366 45.9711 38.5077C46.0057 42.2734 47.8599 44.4237 51.2688 44.4009Z" fill="#212936"/>
</g>
<defs>
<clipPath id="clip0_19281_24732">
<rect width="100" height="33.0709" fill="white" transform="translate(40.5 21.4644)"/>
</clipPath>
</defs>
</svg>
