<svg width="190" height="140" viewBox="0 0 190 140" fill="none" xmlns="http://www.w3.org/2000/svg">
<path d="M120.874 77.2291C118.948 79.2213 116.672 80.1922 113.926 80.1922C111.181 80.1922 108.971 79.2213 107.029 77.2291C105.087 75.2369 104.166 72.8094 104.166 69.9802C104.166 67.1509 105.12 64.7068 107.029 62.7313C108.937 60.7559 111.214 59.7681 113.926 59.7681C116.638 59.7681 118.948 60.7391 120.874 62.7313C122.799 64.7235 123.753 67.1509 123.753 69.9802C123.753 72.8094 122.782 75.2536 120.874 77.2291ZM127.001 57.1398C123.468 53.6242 119.066 51.8496 113.926 51.8496C108.787 51.8496 104.501 53.6409 100.935 57.1565C97.3691 60.6722 95.5611 64.9914 95.5611 69.9802C95.5611 74.969 97.3859 79.3217 100.968 82.8206C104.551 86.3195 108.937 88.1108 113.993 88.1108C119.049 88.1108 123.418 86.3195 126.984 82.7871C130.55 79.2547 132.358 74.969 132.358 70.0304C132.358 65.0918 130.55 60.6387 127.001 57.1398Z" fill="#1A202C"/>
<path d="M74.9867 65.7949H67.9219C67.8262 65.792 67.7326 65.7656 67.6494 65.7181C67.5662 65.6706 67.4959 65.6035 67.4447 65.5225C67.3935 65.4416 67.3629 65.3493 67.3556 65.2538C67.3483 65.1582 67.3646 65.0624 67.403 64.9746C66.6164 66.492 66.2031 68.175 66.1973 69.8841C66.1915 71.5931 66.5933 73.2789 67.3695 74.8016L67.4364 74.9021C67.24 74.5149 67.0937 74.1042 67.0012 73.68C66.0972 69.2101 70.6172 65.7949 74.9867 65.7949Z" fill="url(#paint0_linear_2409_6068)"/>
<path d="M93.1172 66.046C93.0838 65.7112 92.9498 65.1253 92.9164 64.9579H84.6128C84.6455 65.0376 84.6626 65.1228 84.663 65.209C84.6652 65.2815 84.6531 65.3538 84.6274 65.4217C84.6017 65.4896 84.5629 65.5517 84.5131 65.6046C84.4634 65.6575 84.4037 65.7 84.3375 65.7298C84.2713 65.7596 84.1998 65.776 84.1273 65.7782H74.9867C70.634 65.7782 66.1139 69.1766 67.0012 73.6632H85.115C89.4342 73.68 93.7869 70.3987 93.1172 66.046Z" fill="url(#paint1_linear_2409_6068)"/>
<path d="M81.9171 78.1331C81.6325 78.334 81.3647 78.5181 81.0801 78.6855H81.0633L80.9127 78.786C79.4318 79.6947 77.7282 80.1757 75.9908 80.1755C70.5834 80.1755 66.1973 75.5885 66.1973 69.9132C66.1973 64.238 70.5834 59.6677 75.9908 59.6677C77.6803 59.6652 79.3396 60.1162 80.7955 60.9735L81.0633 61.1409H81.0801L81.4986 61.4255C82.1489 61.8734 82.7396 62.4022 83.2564 62.9992C83.2732 62.9992 83.2732 62.9992 83.2732 63.0159L83.6247 63.4344L83.6582 63.4679L83.9763 63.9032L84.0098 63.9534C84.1102 64.1041 84.2107 64.238 84.2944 64.3887L84.3278 64.4389C84.4116 64.5896 84.512 64.7402 84.5957 64.9076V64.9411C84.6284 65.0208 84.6455 65.1061 84.6459 65.1922C84.6482 65.2648 84.6361 65.3371 84.6103 65.405C84.5846 65.4729 84.5458 65.535 84.496 65.5879C84.4463 65.6407 84.3866 65.6833 84.3204 65.713C84.2542 65.7428 84.1828 65.7593 84.1102 65.7614H93.0667C93.0499 65.6275 93.0165 65.4936 92.9997 65.3597L92.9662 65.2592C92.9463 65.1236 92.9184 64.9897 92.8825 64.8574C92.8825 64.8407 92.8825 64.8407 92.8658 64.8239L92.7653 64.4389C92.7653 64.4054 92.7486 64.3719 92.7486 64.3385C92.7486 64.305 92.6649 64.0706 92.6147 63.9199V63.8864C92.5625 63.7551 92.5178 63.621 92.4807 63.4847C92.464 63.4679 92.464 63.4344 92.4473 63.4177L92.2966 62.9824H92.2799C92.2296 62.8318 92.1627 62.6978 92.1124 62.5472C92.0622 62.3965 92.0957 62.5304 92.0957 62.5137L91.8948 62.0617H91.8781L91.6772 61.6264H91.6604C91.5935 61.4757 91.5098 61.3251 91.4261 61.1744C91.2587 60.873 91.0912 60.5717 90.9071 60.2704C90.5305 59.6543 90.1168 59.0617 89.6682 58.4958C86.7386 54.7793 82.1515 51.8998 76.3591 51.8998C70.8848 51.8998 66.4484 53.8083 63.0165 57.2402C59.2832 60.9735 57.6426 65.2425 57.6426 69.9634C57.6426 79.5896 65.2263 90.036 79.406 87.8597C83.3569 87.257 87.2743 84.7793 89.685 82.1007C90.1153 81.6366 90.5072 81.1383 90.8569 80.6108C90.9885 80.4146 91.0441 80.1772 91.0133 79.943C90.9825 79.7088 90.8674 79.4939 90.6895 79.3385C88.0276 76.9445 84.8301 76.007 81.9171 78.1331Z" fill="#1A202C"/>
<defs>
<linearGradient id="paint0_linear_2409_6068" x1="60.8874" y1="70.0306" x2="100.25" y2="70.0306" gradientUnits="userSpaceOnUse">
<stop stop-color="#1A202C" stop-opacity="0.6"/>
<stop offset="1" stop-color="#1A202C"/>
</linearGradient>
<linearGradient id="paint1_linear_2409_6068" x1="73.9287" y1="109.553" x2="122.41" y2="69.247" gradientUnits="userSpaceOnUse">
<stop stop-color="#1A202C" stop-opacity="0.25"/>
<stop offset="0.38" stop-color="#1A202C" stop-opacity="0.68"/>
<stop offset="1" stop-color="#1A202C"/>
</linearGradient>
</defs>
</svg>
