<svg width="190" height="140" viewBox="0 0 190 140" fill="none" xmlns="http://www.w3.org/2000/svg">
<path d="M72.4954 65.9006H73.2459V69.2693H77.1019V65.9006H77.8524V73.8108H77.1019V69.968H73.2459V73.8108H72.4954V65.9006Z" fill="#1A202C"/>
<path d="M84.1878 65.9006H84.9384V73.8108H84.3454C84.2897 73.815 84.2334 73.815 84.1777 73.8108L84.1878 65.9006Z" fill="#1A202C"/>
<path d="M91.2586 65.9006H92.0091V73.1171H95.3517C95.3517 73.162 95.3517 73.2219 95.3517 73.2917C95.3517 73.3616 95.3517 73.4215 95.3517 73.4714C95.3517 73.5214 95.3517 73.5912 95.3517 73.6511C95.3517 73.711 95.3517 73.7659 95.3517 73.8108H91.2586V65.9006Z" fill="#1A202C"/>
<path d="M101.006 66.5844H98.902C98.902 66.5395 98.902 66.4845 98.902 66.4246C98.902 66.3648 98.902 66.2999 98.902 66.245C98.902 66.1901 98.902 66.1352 98.902 66.0653C98.902 65.9955 98.902 65.9455 98.902 65.9006H103.84C103.845 65.952 103.845 66.0039 103.84 66.0554C103.84 66.1153 103.84 66.1751 103.84 66.23C103.84 66.2849 103.84 66.3448 103.84 66.4146C103.845 66.4711 103.845 66.528 103.84 66.5844H101.756V73.8108H101.173C101.118 73.815 101.061 73.815 101.006 73.8108V66.5844Z" fill="#1A202C"/>
<path d="M109.308 65.9006H113.476C113.479 65.9538 113.479 66.0072 113.476 66.0603C113.476 66.1252 113.476 66.1851 113.476 66.245C113.476 66.3049 113.476 66.3548 113.476 66.4246C113.479 66.4811 113.479 66.5378 113.476 66.5943H110.019V69.2693H112.785C112.785 69.3142 112.785 69.3641 112.785 69.429C112.785 69.4939 112.785 69.5488 112.785 69.6087C112.785 69.6686 112.785 69.7235 112.785 69.7933C112.785 69.8632 112.785 69.9181 112.785 69.963H110.019V73.1171H113.555C113.558 73.1703 113.558 73.2236 113.555 73.2768C113.555 73.3417 113.555 73.4016 113.555 73.4615C113.555 73.5214 113.555 73.5712 113.555 73.6411C113.558 73.6976 113.558 73.7543 113.555 73.8108H109.308V65.9006Z" fill="#1A202C"/>
<path d="M119.322 65.8705L119.742 65.8306L120.088 65.7956H120.882C121.228 65.7943 121.572 65.8311 121.909 65.9055C122.233 65.9727 122.541 66.1014 122.818 66.2847C123.086 66.4573 123.308 66.6938 123.465 66.9734C123.638 67.3315 123.721 67.7277 123.706 68.1263C123.711 68.3938 123.659 68.6592 123.553 68.9048C123.457 69.1364 123.323 69.3504 123.158 69.5386C122.996 69.7339 122.805 69.9023 122.59 70.0377C122.383 70.1708 122.163 70.2828 121.934 70.3721L121.845 70.407L124.314 73.8156C124.241 73.8229 124.169 73.8229 124.096 73.8156H123.667C123.596 73.8227 123.525 73.8227 123.455 73.8156L120.734 70.1475V70.1026L120.976 70.0377C121.222 69.9737 121.462 69.8867 121.692 69.7781C121.914 69.6792 122.122 69.55 122.309 69.3939C122.485 69.2456 122.631 69.0643 122.739 68.8599C122.852 68.6363 122.908 68.3875 122.902 68.1363C122.918 67.894 122.878 67.6514 122.784 67.4278C122.691 67.2041 122.547 67.0058 122.363 66.8487C121.956 66.544 121.457 66.3922 120.952 66.4195H120.527C120.394 66.4195 120.241 66.4195 120.033 66.4644V73.8106H119.282L119.322 65.8705Z" fill="#1A202C"/>
<path d="M129.81 65.9006H130.753L132.94 71.1708L135.108 65.9006H136.032L136.412 73.8108H135.661L135.365 67.0784L133.227 72.1738C133.176 72.1808 133.125 72.1808 133.074 72.1738H132.773C132.725 72.1809 132.677 72.1809 132.63 72.1738L130.492 67.0685L130.181 73.8108H129.425L129.81 65.9006Z" fill="#1A202C"/>
<path d="M144.325 65.9006H145.229L147.841 73.8108C147.78 73.8152 147.719 73.8152 147.658 73.8108H147.036L146.384 71.8145H143.15L142.533 73.8108H141.896C141.835 73.8152 141.774 73.8152 141.713 73.8108L144.325 65.9006ZM146.157 71.0959L144.75 66.6941L143.367 71.0959H146.157Z" fill="#1A202C"/>
<path d="M153.287 65.9006H154.102L157.844 72.5232V65.9006H158.585V73.8108C158.521 73.8154 158.457 73.8154 158.393 73.8108H157.77L154.013 67.2431V73.8108H153.47C153.415 73.8148 153.361 73.8148 153.307 73.8108L153.287 65.9006Z" fill="#1A202C"/>
<path d="M164.697 65.9006H165.517L169.269 72.5232V65.9006H170V73.8108C169.938 73.8151 169.875 73.8151 169.813 73.8108H169.185L165.438 67.2431V73.8108H164.875C164.82 73.8148 164.766 73.8148 164.712 73.8108L164.697 65.9006Z" fill="#1A202C"/>
<path d="M110.646 80.448H110.997V83.8563H112.577C112.577 83.8563 112.577 83.9012 112.577 83.9361V84.1057C112.577 84.1357 112.577 84.1606 112.577 84.1806H110.646V80.448Z" fill="#1A202C"/>
<path d="M115.154 80.448H117.129C117.132 80.4728 117.132 80.498 117.129 80.5228V80.6925C117.132 80.719 117.132 80.7458 117.129 80.7723H115.504V82.0348H116.813C116.815 82.0614 116.815 82.0881 116.813 82.1147C116.815 82.1429 116.815 82.1713 116.813 82.1995C116.815 82.2277 116.815 82.2561 116.813 82.2843C116.816 82.3108 116.816 82.3377 116.813 82.3642H115.504V83.8612H117.178C117.178 83.8612 117.178 83.9061 117.178 83.9361C117.181 83.9643 117.181 83.9927 117.178 84.0209C117.181 84.0491 117.181 84.0775 117.178 84.1057C117.178 84.1406 117.178 84.1656 117.178 84.1856H115.154V80.448Z" fill="#1A202C"/>
<path d="M120.699 80.448H121.119L122.353 84.1806H121.973L121.667 83.2325H120.141L119.85 84.1806H119.465L120.699 80.448ZM121.563 82.943L120.882 80.8422L120.245 82.943H121.563Z" fill="#1A202C"/>
<path d="M124.787 83.7865L124.94 83.8314C124.996 83.8523 125.054 83.869 125.113 83.8813C125.182 83.8969 125.253 83.9086 125.325 83.9163C125.415 83.9219 125.506 83.9219 125.596 83.9163C125.74 83.9191 125.883 83.8989 126.021 83.8564C126.128 83.8228 126.226 83.7685 126.313 83.6967C126.387 83.6308 126.446 83.549 126.485 83.4571C126.524 83.3623 126.543 83.2603 126.54 83.1577C126.542 83.0682 126.53 82.979 126.505 82.8933C126.474 82.8157 126.429 82.7447 126.372 82.6837C126.293 82.6136 126.205 82.5549 126.11 82.509C125.973 82.4395 125.834 82.3778 125.69 82.3244C125.572 82.2815 125.457 82.2314 125.345 82.1747C125.242 82.1262 125.147 82.0623 125.063 81.9851C124.979 81.9127 124.911 81.8224 124.866 81.7206C124.815 81.5976 124.791 81.4647 124.796 81.3313C124.792 81.2023 124.817 81.074 124.868 80.9557C124.919 80.8375 124.996 80.7322 125.093 80.6477C125.347 80.4598 125.658 80.368 125.971 80.3882H126.199L126.416 80.4182L126.599 80.4531L126.737 80.488C126.732 80.542 126.722 80.5955 126.707 80.6477C126.698 80.7006 126.683 80.7525 126.663 80.8024C126.56 80.7671 126.454 80.742 126.347 80.7275C126.222 80.7035 126.094 80.6918 125.967 80.6926C125.748 80.6725 125.53 80.7347 125.354 80.8672C125.294 80.9249 125.247 80.9946 125.215 81.0721C125.184 81.1495 125.169 81.2327 125.172 81.3164C125.169 81.4012 125.188 81.4854 125.226 81.5609C125.265 81.6318 125.319 81.6932 125.384 81.7405C125.457 81.7989 125.536 81.8475 125.621 81.8852C125.715 81.9252 125.814 81.9701 125.922 82.01C126.031 82.0499 126.199 82.1298 126.322 82.1946C126.439 82.2496 126.547 82.3219 126.643 82.4092C126.732 82.4926 126.804 82.5926 126.855 82.7036C126.91 82.8329 126.937 82.9723 126.934 83.1128C126.939 83.2846 126.906 83.4553 126.835 83.6118C126.774 83.7487 126.683 83.8698 126.569 83.9661C126.441 84.0666 126.295 84.1411 126.14 84.1857C125.956 84.2379 125.767 84.2631 125.577 84.2605C125.411 84.263 125.245 84.2479 125.083 84.2156C124.949 84.1857 124.821 84.1508 124.708 84.1158C124.715 84.0585 124.726 84.0017 124.742 83.9462C124.754 83.892 124.768 83.8387 124.787 83.7865Z" fill="#1A202C"/>
<path d="M129.66 80.448H131.635C131.635 80.448 131.635 80.4929 131.635 80.5228V80.6925C131.635 80.7274 131.635 80.7524 131.635 80.7723H130.016V82.0348H131.324C131.324 82.0348 131.324 82.0847 131.324 82.1147C131.327 82.1429 131.327 82.1713 131.324 82.1995C131.326 82.2277 131.326 82.2561 131.324 82.2843C131.324 82.3143 131.324 82.3442 131.324 82.3642H130.016V83.8612H131.69C131.69 83.8612 131.69 83.9061 131.69 83.9361C131.69 83.966 131.69 83.9909 131.69 84.0209C131.69 84.0508 131.69 84.0758 131.69 84.1057C131.69 84.1357 131.69 84.1656 131.69 84.1856H129.66V80.448Z" fill="#1A202C"/>
<path d="M29.5493 65.09C29.5493 63.4615 28.7814 63.5185 27.1639 63.3312V62.9241L31.6242 62.3786V69.6334H38.617V62.3786H40.7002V78.3945H38.617V70.5616H31.6242V78.3945H29.5493V65.09Z" fill="#1A202C"/>
<path d="M72.4954 65.9006H73.2459V69.2693H77.1019V65.9006H77.8524V73.8108H77.1019V69.968H73.2459V73.8108H72.4954V65.9006Z" stroke="#1A202C" stroke-width="1.125" stroke-miterlimit="10"/>
<path d="M84.1878 65.9006H84.9384V73.8108H84.3454C84.2897 73.815 84.2334 73.815 84.1777 73.8108L84.1878 65.9006Z" stroke="#1A202C" stroke-width="1.125" stroke-miterlimit="10"/>
<path d="M91.2586 65.9006H92.0091V73.1171H95.3517C95.3517 73.162 95.3517 73.2219 95.3517 73.2917C95.3517 73.3616 95.3517 73.4215 95.3517 73.4714C95.3517 73.5214 95.3517 73.5912 95.3517 73.6511C95.3517 73.711 95.3517 73.7659 95.3517 73.8108H91.2586V65.9006Z" stroke="#1A202C" stroke-width="1.125" stroke-miterlimit="10"/>
<path d="M101.006 66.5844H98.902C98.902 66.5395 98.902 66.4845 98.902 66.4246C98.902 66.3648 98.902 66.2999 98.902 66.245C98.902 66.1901 98.902 66.1352 98.902 66.0653C98.902 65.9955 98.902 65.9455 98.902 65.9006H103.84C103.845 65.952 103.845 66.0039 103.84 66.0554C103.84 66.1153 103.84 66.1751 103.84 66.23C103.84 66.2849 103.84 66.3448 103.84 66.4146C103.845 66.4711 103.845 66.528 103.84 66.5844H101.756V73.8108H101.173C101.118 73.815 101.061 73.815 101.006 73.8108V66.5844Z" stroke="#1A202C" stroke-width="1.125" stroke-miterlimit="10"/>
<path d="M109.308 65.9006H113.476C113.479 65.9538 113.479 66.0072 113.476 66.0603C113.476 66.1252 113.476 66.1851 113.476 66.245C113.476 66.3049 113.476 66.3548 113.476 66.4246C113.479 66.4811 113.479 66.5378 113.476 66.5943H110.019V69.2693H112.785C112.785 69.3142 112.785 69.3641 112.785 69.429C112.785 69.4939 112.785 69.5488 112.785 69.6087C112.785 69.6686 112.785 69.7235 112.785 69.7933C112.785 69.8632 112.785 69.9181 112.785 69.963H110.019V73.1171H113.555C113.558 73.1703 113.558 73.2236 113.555 73.2768C113.555 73.3417 113.555 73.4016 113.555 73.4615C113.555 73.5214 113.555 73.5712 113.555 73.6411C113.558 73.6976 113.558 73.7543 113.555 73.8108H109.308V65.9006Z" stroke="#1A202C" stroke-width="1.125" stroke-miterlimit="10"/>
<path d="M119.322 65.8705L119.742 65.8306L120.088 65.7956H120.882C121.228 65.7943 121.572 65.8311 121.909 65.9055C122.233 65.9727 122.541 66.1014 122.818 66.2847C123.086 66.4573 123.308 66.6938 123.465 66.9734C123.638 67.3315 123.721 67.7277 123.706 68.1263C123.711 68.3938 123.659 68.6592 123.553 68.9048C123.457 69.1364 123.323 69.3504 123.158 69.5386C122.996 69.7339 122.805 69.9023 122.59 70.0377C122.383 70.1708 122.163 70.2828 121.934 70.3721L121.845 70.407L124.314 73.8156C124.241 73.8229 124.169 73.8229 124.096 73.8156H123.667C123.596 73.8227 123.525 73.8227 123.455 73.8156L120.734 70.1475V70.1026L120.976 70.0377C121.222 69.9737 121.462 69.8867 121.692 69.7781C121.914 69.6792 122.122 69.55 122.309 69.3939C122.485 69.2456 122.631 69.0643 122.739 68.8599C122.852 68.6363 122.908 68.3875 122.902 68.1363C122.918 67.894 122.878 67.6514 122.784 67.4278C122.691 67.2041 122.547 67.0058 122.363 66.8487C121.956 66.544 121.457 66.3922 120.952 66.4195H120.527C120.394 66.4195 120.241 66.4195 120.033 66.4644V73.8106H119.282L119.322 65.8705Z" stroke="#1A202C" stroke-width="1.125" stroke-miterlimit="10"/>
<path d="M129.81 65.9006H130.753L132.94 71.1708L135.108 65.9006H136.032L136.412 73.8108H135.661L135.365 67.0784L133.227 72.1738C133.176 72.1808 133.125 72.1808 133.074 72.1738H132.773C132.725 72.1809 132.677 72.1809 132.63 72.1738L130.492 67.0685L130.181 73.8108H129.425L129.81 65.9006Z" stroke="#1A202C" stroke-width="1.125" stroke-miterlimit="10"/>
<path d="M144.325 65.9006H145.229L147.841 73.8108C147.78 73.8152 147.719 73.8152 147.658 73.8108H147.036L146.384 71.8145H143.15L142.533 73.8108H141.896C141.835 73.8152 141.774 73.8152 141.713 73.8108L144.325 65.9006ZM146.157 71.0959L144.75 66.6941L143.367 71.0959H146.157Z" stroke="#1A202C" stroke-width="1.125" stroke-miterlimit="10"/>
<path d="M153.287 65.9006H154.102L157.844 72.5232V65.9006H158.585V73.8108C158.521 73.8154 158.457 73.8154 158.393 73.8108H157.77L154.013 67.2431V73.8108H153.47C153.415 73.8148 153.361 73.8148 153.307 73.8108L153.287 65.9006Z" stroke="#1A202C" stroke-width="1.125" stroke-miterlimit="10"/>
<path d="M164.697 65.9006H165.517L169.269 72.5232V65.9006H170V73.8108C169.938 73.8151 169.875 73.8151 169.813 73.8108H169.185L165.438 67.2431V73.8108H164.875C164.82 73.8148 164.766 73.8148 164.712 73.8108L164.697 65.9006Z" stroke="#1A202C" stroke-width="1.125" stroke-miterlimit="10"/>
<path d="M110.646 80.448H110.997V83.8563H112.577C112.577 83.8563 112.577 83.9012 112.577 83.9361V84.1057C112.577 84.1357 112.577 84.1606 112.577 84.1806H110.646V80.448Z" stroke="#1A202C" stroke-width="1.125" stroke-miterlimit="10"/>
<path d="M115.154 80.448H117.129C117.132 80.4728 117.132 80.498 117.129 80.5228V80.6925C117.132 80.719 117.132 80.7458 117.129 80.7723H115.504V82.0348H116.813C116.815 82.0614 116.815 82.0881 116.813 82.1147C116.815 82.1429 116.815 82.1713 116.813 82.1995C116.815 82.2277 116.815 82.2561 116.813 82.2843C116.816 82.3108 116.816 82.3377 116.813 82.3642H115.504V83.8612H117.178C117.178 83.8612 117.178 83.9061 117.178 83.9361C117.181 83.9643 117.181 83.9927 117.178 84.0209C117.181 84.0491 117.181 84.0775 117.178 84.1057C117.178 84.1406 117.178 84.1656 117.178 84.1856H115.154V80.448Z" stroke="#1A202C" stroke-width="1.125" stroke-miterlimit="10"/>
<path d="M120.699 80.448H121.119L122.353 84.1806H121.973L121.667 83.2325H120.141L119.85 84.1806H119.465L120.699 80.448ZM121.563 82.943L120.882 80.8422L120.245 82.943H121.563Z" stroke="#1A202C" stroke-width="1.125" stroke-miterlimit="10"/>
<path d="M124.787 83.7865L124.94 83.8314C124.996 83.8523 125.054 83.869 125.113 83.8813C125.182 83.8969 125.253 83.9086 125.325 83.9163C125.415 83.9219 125.506 83.9219 125.596 83.9163C125.74 83.9191 125.883 83.8989 126.021 83.8564C126.128 83.8228 126.226 83.7685 126.313 83.6967C126.387 83.6308 126.446 83.549 126.485 83.4571C126.524 83.3623 126.543 83.2603 126.54 83.1577C126.542 83.0682 126.53 82.979 126.505 82.8933C126.474 82.8157 126.429 82.7447 126.372 82.6837C126.293 82.6136 126.205 82.5549 126.11 82.509C125.973 82.4395 125.834 82.3778 125.69 82.3244C125.572 82.2815 125.457 82.2314 125.345 82.1747C125.242 82.1262 125.147 82.0623 125.063 81.9851C124.979 81.9127 124.911 81.8224 124.866 81.7206C124.815 81.5976 124.791 81.4647 124.796 81.3313C124.792 81.2023 124.817 81.074 124.868 80.9557C124.919 80.8375 124.996 80.7322 125.093 80.6477C125.347 80.4598 125.658 80.368 125.971 80.3882H126.199L126.416 80.4182L126.599 80.4531L126.737 80.488C126.732 80.542 126.722 80.5955 126.707 80.6477C126.698 80.7006 126.683 80.7525 126.663 80.8024C126.56 80.7671 126.454 80.742 126.347 80.7275C126.222 80.7035 126.094 80.6918 125.967 80.6926C125.748 80.6725 125.53 80.7347 125.354 80.8672C125.294 80.9249 125.247 80.9946 125.215 81.0721C125.184 81.1495 125.169 81.2327 125.172 81.3164C125.169 81.4012 125.188 81.4854 125.226 81.5609C125.265 81.6318 125.319 81.6932 125.384 81.7405C125.457 81.7989 125.536 81.8475 125.621 81.8852C125.715 81.9252 125.814 81.9701 125.922 82.01C126.031 82.0499 126.199 82.1298 126.322 82.1946C126.439 82.2496 126.547 82.3219 126.643 82.4092C126.732 82.4926 126.804 82.5926 126.855 82.7036C126.91 82.8329 126.937 82.9723 126.934 83.1128C126.939 83.2846 126.906 83.4553 126.835 83.6118C126.774 83.7487 126.683 83.8698 126.569 83.9661C126.441 84.0666 126.295 84.1411 126.14 84.1857C125.956 84.2379 125.767 84.2631 125.577 84.2605C125.411 84.263 125.245 84.2479 125.083 84.2156C124.949 84.1857 124.821 84.1508 124.708 84.1158C124.715 84.0585 124.726 84.0017 124.742 83.9462C124.754 83.892 124.768 83.8387 124.787 83.7865Z" stroke="#1A202C" stroke-width="1.125" stroke-miterlimit="10"/>
<path d="M129.66 80.448H131.635C131.635 80.448 131.635 80.4929 131.635 80.5228V80.6925C131.635 80.7274 131.635 80.7524 131.635 80.7723H130.016V82.0348H131.324C131.324 82.0348 131.324 82.0847 131.324 82.1147C131.327 82.1429 131.327 82.1713 131.324 82.1995C131.326 82.2277 131.326 82.2561 131.324 82.2843C131.324 82.3143 131.324 82.3442 131.324 82.3642H130.016V83.8612H131.69C131.69 83.8612 131.69 83.9061 131.69 83.9361C131.69 83.966 131.69 83.9909 131.69 84.0209C131.69 84.0508 131.69 84.0758 131.69 84.1057C131.69 84.1357 131.69 84.1656 131.69 84.1856H129.66V80.448Z" stroke="#1A202C" stroke-width="1.125" stroke-miterlimit="10"/>
<path d="M29.5493 65.09C29.5493 63.4615 28.7814 63.5185 27.1639 63.3312V62.9241L31.6242 62.3786V69.6334H38.617V62.3786H40.7002V78.3945H38.617V70.5616H31.6242V78.3945H29.5493V65.09Z" stroke="#1A202C" stroke-width="1.125" stroke-miterlimit="10"/>
<path d="M34.9985 84.9494C43.282 84.9494 49.9971 78.2564 49.9971 70.0001C49.9971 61.7438 43.282 55.0508 34.9985 55.0508C26.7151 55.0508 20 61.7438 20 70.0001C20 78.2564 26.7151 84.9494 34.9985 84.9494Z" stroke="#1A202C" stroke-width="1.125" stroke-miterlimit="10"/>
</svg>
