<svg width="181" height="76" viewBox="0 0 181 76" fill="none" xmlns="http://www.w3.org/2000/svg">
<path fill-rule="evenodd" clip-rule="evenodd" d="M84.5042 44.6126C82.529 44.6126 80.5827 44.6126 78.6363 44.6126C76.6908 44.6126 74.7454 44.6126 72.735 44.6126C72.735 44.8583 72.735 45.0619 72.735 45.2656C72.7352 49.1911 72.7308 53.1167 72.743 57.0422C72.7442 57.4177 72.6479 57.5251 72.2948 57.5237C68.6789 57.51 65.063 57.515 61.447 57.5145C60.9781 57.5144 60.976 57.5135 60.9759 56.989C60.9748 53.0635 60.9746 49.138 60.9743 45.2124C60.9743 44.6143 60.9748 44.6138 60.4339 44.6136C56.8301 44.612 53.2263 44.6109 49.6226 44.6096C49.4904 44.6095 49.3582 44.6096 49.1991 44.6096C49.1838 44.4649 49.1612 44.3518 49.1614 44.2389C49.165 40.2222 49.1747 36.2055 49.1693 32.1889C49.1688 31.8137 49.2713 31.7071 49.624 31.7085C53.2398 31.722 56.8558 31.7168 60.4718 31.7161C60.9708 31.716 60.9724 31.7139 60.9726 31.1832C60.9746 27.323 60.9758 23.4626 60.9775 19.6023C60.9776 19.4719 60.9946 19.3396 60.9794 19.2115C60.9415 18.8921 61.0779 18.8158 61.3563 18.8164C64.9967 18.8239 68.6369 18.8249 72.2772 18.8152C72.6412 18.8143 72.7453 18.941 72.7439 19.3356C72.7301 23.261 72.7359 27.1866 72.7362 31.1122C72.7362 31.2918 72.7362 31.4715 72.7362 31.7168C73.0071 31.7168 73.2332 31.7168 73.4593 31.7168C77.0022 31.7171 80.5451 31.7222 84.0879 31.7099C84.4354 31.7086 84.546 31.8101 84.5449 32.1896C84.5335 36.1803 84.5378 40.171 84.5359 44.1617C84.5358 44.3016 84.5167 44.4414 84.5042 44.6126Z" fill="#1F2937"/>
<path fill-rule="evenodd" clip-rule="evenodd" d="M107.096 52.4058C106.311 52.4058 105.585 52.4176 104.86 52.391C104.77 52.3877 104.654 52.1947 104.605 52.0657C104.059 50.6295 103.521 49.1899 102.987 47.7486C102.779 47.1869 102.348 46.9543 101.827 47.1796C101.741 47.2171 101.674 47.4239 101.673 47.5531C101.661 48.9225 101.665 50.292 101.665 51.6614C101.665 51.8179 101.658 51.9745 101.663 52.1308C101.669 52.3267 101.593 52.4133 101.404 52.4115C100.844 52.4057 100.284 52.4023 99.724 52.4138C99.4113 52.4203 99.4509 52.1961 99.4509 51.9888C99.4512 49.9672 99.4522 47.9457 99.452 45.9242C99.4518 43.9548 99.4586 41.9853 99.4427 40.0161C99.4396 39.6422 99.5396 39.5204 99.8945 39.5306C101.087 39.565 102.282 39.5211 103.471 39.594C104.556 39.6605 105.519 40.0849 106.142 41.1152C106.677 42.0011 106.757 42.998 106.659 44.0152C106.55 45.1456 106.11 46.0623 105.103 46.5725C104.886 46.6825 104.97 46.8393 105.032 46.9977C105.651 48.5987 106.272 50.1995 106.889 51.8012C106.957 51.9769 107.012 52.1584 107.096 52.4058ZM101.665 43.3283C101.666 43.3283 101.666 43.3283 101.667 43.3283C101.667 43.8236 101.67 44.3191 101.666 44.8143C101.664 45.0165 101.724 45.1412 101.935 45.1354C102.372 45.1234 102.815 45.1536 103.246 45.0951C103.827 45.0163 104.24 44.664 104.36 44.0256C104.422 43.6978 104.454 43.3522 104.432 43.0198C104.37 42.112 103.859 41.5978 103.014 41.5542C102.686 41.5372 102.357 41.5539 102.029 41.5368C101.765 41.5229 101.654 41.6303 101.662 41.9204C101.675 42.3894 101.665 42.859 101.665 43.3283Z" fill="#1F2937"/>
<path fill-rule="evenodd" clip-rule="evenodd" d="M98.9182 35.4308C98.1378 35.4308 97.4338 35.4493 96.7321 35.4127C96.6149 35.4065 96.4641 35.1801 96.4039 35.0226C95.8319 33.5271 95.2766 32.0243 94.7151 30.5243C94.6028 30.2244 93.7507 30.0084 93.555 30.2479C93.4809 30.3386 93.479 30.5158 93.4785 30.6537C93.4738 32.0884 93.4659 33.5232 93.4833 34.9575C93.4878 35.3323 93.3822 35.4614 93.0284 35.4387C92.5553 35.4084 92.0789 35.4227 91.6045 35.4375C91.3522 35.4454 91.2609 35.3447 91.2633 35.0749C91.271 34.2012 91.2603 33.3274 91.2604 32.4536C91.2607 29.2975 91.2658 26.1414 91.259 22.9852C91.2584 22.6711 91.3366 22.5488 91.6495 22.5543C92.6719 22.5725 93.6967 22.5207 94.7167 22.5756C95.3163 22.6078 95.9314 22.7191 96.4995 22.9228C97.4597 23.2669 98.0785 24.0112 98.3403 25.0763C98.5558 25.9529 98.5625 26.8325 98.355 27.7075C98.1633 28.5156 97.7441 29.1538 97.0275 29.5229C96.7866 29.6471 96.7523 29.781 96.8542 30.0412C97.4847 31.6514 98.1009 33.2681 98.7208 34.8829C98.78 35.0368 98.833 35.1935 98.9182 35.4308ZM93.4768 26.369C93.4772 26.369 93.4776 26.369 93.4781 26.369C93.4781 26.8505 93.4852 27.3323 93.4751 27.8134C93.4699 28.0629 93.5612 28.1735 93.7946 28.1642C94.2191 28.1476 94.6466 28.1665 95.0677 28.1188C95.5607 28.063 95.94 27.7761 96.1244 27.2761C96.3164 26.7556 96.3345 26.2081 96.1905 25.666C96.0184 25.0176 95.6197 24.6517 94.9909 24.5943C94.6046 24.559 94.2138 24.5827 93.8259 24.5634C93.5489 24.5497 93.4668 24.6888 93.4737 24.9636C93.4853 25.4319 93.4768 25.9006 93.4768 26.369Z" fill="#1F2937"/>
<path fill-rule="evenodd" clip-rule="evenodd" d="M107.177 35.3824C107.177 35.0196 107.177 34.6576 107.177 34.2957C107.175 30.5163 107.173 26.737 107.174 22.9576C107.174 22.7838 107.141 22.5596 107.406 22.5653C108.755 22.5943 110.111 22.5385 111.449 22.6827C113.016 22.8515 113.906 23.9281 114.233 25.5505C114.295 25.8551 114.356 26.1682 114.356 26.4773C114.354 28.2873 114.447 30.1087 114.291 31.9046C114.091 34.2102 112.917 35.299 110.756 35.4135C109.628 35.4733 108.494 35.4248 107.362 35.4233C107.316 35.4232 107.27 35.4036 107.177 35.3824ZM109.401 28.9495C109.401 29.6014 109.401 30.2534 109.401 30.9054C109.401 31.5574 109.399 32.2094 109.403 32.8613C109.405 33.0345 109.361 33.2291 109.615 33.2811C111.001 33.565 112.042 32.8243 112.115 31.3186C112.196 29.6562 112.151 27.9833 112.09 26.3177C112.057 25.405 111.45 24.8327 110.595 24.7347C110.329 24.7042 110.059 24.7206 109.793 24.6899C109.48 24.6536 109.394 24.7996 109.397 25.1157C109.408 26.3936 109.402 27.6715 109.401 28.9495Z" fill="#1F2937"/>
<path fill-rule="evenodd" clip-rule="evenodd" d="M115.019 45.9608C115.019 46.808 115.027 47.6553 115.017 48.5025C114.981 51.6448 113.243 52.8511 110.599 52.5339C109.75 52.4319 108.997 52.0968 108.436 51.373C107.962 50.7612 107.685 50.0294 107.67 49.2586C107.628 47.0719 107.585 44.8801 107.678 42.6968C107.76 40.7504 108.916 39.5883 110.729 39.3893C111.473 39.3075 112.215 39.3413 112.927 39.6185C114.112 40.0798 114.724 41.0529 114.913 42.3334C115.011 42.9975 114.997 43.682 115.016 44.3578C115.031 44.8917 115.019 45.4265 115.019 45.9608ZM112.794 45.9717C112.792 45.9717 112.79 45.9717 112.788 45.9717C112.788 44.9815 112.8 43.991 112.783 43.0011C112.773 42.4429 112.61 41.9384 112.106 41.6633C111.081 41.1035 110.011 41.7024 109.861 42.9149C109.838 43.0949 109.836 43.2787 109.835 43.4609C109.832 45.1548 109.829 46.8487 109.834 48.5428C109.835 48.8018 109.857 49.0653 109.906 49.3185C110.026 49.941 110.374 50.3011 110.916 50.4025C112.11 50.6257 112.779 50.0409 112.792 48.7473C112.802 47.8221 112.794 46.8969 112.794 45.9717Z" fill="#1F2937"/>
<path fill-rule="evenodd" clip-rule="evenodd" d="M123.172 43.1831C122.552 43.1831 121.923 43.1938 121.295 43.1673C121.229 43.1646 121.132 42.9475 121.117 42.8208C120.99 41.7427 120.235 41.1619 119.254 41.3886C118.778 41.4988 118.469 41.7918 118.342 42.2875C118.214 42.7849 118.267 43.2663 118.646 43.616C118.966 43.9112 119.319 44.1742 119.685 44.3999C120.591 44.9585 121.536 45.4487 122.291 46.2516C123.683 47.7318 123.671 50.2937 122.252 51.6503C120.923 52.9208 117.715 53.17 116.412 50.7706C116.05 50.1049 115.904 49.3675 115.86 48.6033C115.848 48.395 115.903 48.2832 116.117 48.2857C116.652 48.2918 117.188 48.2773 117.723 48.3004C117.805 48.3039 117.917 48.449 117.952 48.553C117.999 48.6952 117.979 48.8619 118.001 49.016C118.156 50.1121 118.933 50.7266 119.954 50.5487C120.499 50.4537 120.854 50.0983 121.009 49.5387C121.196 48.8617 121.058 48.222 120.539 47.8093C119.811 47.2302 118.999 46.7731 118.252 46.2192C117.716 45.822 117.157 45.4189 116.731 44.9019C115.212 43.0554 116.256 39.9182 118.512 39.4678C119.595 39.2514 120.639 39.3292 121.622 39.9376C122.581 40.5316 123.329 42.0362 123.172 43.1831Z" fill="#1F2937"/>
<path fill-rule="evenodd" clip-rule="evenodd" d="M125.088 48.287C125.307 48.287 125.527 48.3043 125.744 48.2829C126.061 48.2518 126.168 48.3826 126.169 48.7249C126.171 49.4461 126.396 50.0677 127.053 50.3883C127.63 50.6699 128.226 50.6919 128.75 50.2655C129.222 49.8812 129.329 49.3118 129.231 48.7141C129.133 48.1205 128.747 47.7231 128.3 47.4181C127.521 46.8865 126.712 46.4045 125.931 45.877C125.339 45.4771 124.812 44.9882 124.521 44.2831C123.571 41.9878 124.81 39.7173 127.181 39.3922C128.897 39.1569 130.37 39.9235 131.042 41.4589C131.229 41.8863 131.29 42.3786 131.393 42.8452C131.446 43.0863 131.348 43.2024 131.1 43.1951C130.625 43.1811 130.15 43.1788 129.676 43.196C129.414 43.2055 129.319 43.1096 129.294 42.8235C129.192 41.6778 128.472 41.2719 127.509 41.3796C127.028 41.4334 126.674 41.7257 126.535 42.2508C126.394 42.7794 126.446 43.2796 126.854 43.6455C127.188 43.9439 127.555 44.2069 127.931 44.4408C128.856 45.0153 129.837 45.5001 130.574 46.365C131.504 47.4555 131.698 48.7412 131.332 50.1193C130.978 51.454 130.078 52.188 128.837 52.4633C127.675 52.7213 126.549 52.6358 125.551 51.8813C124.489 51.0786 124.106 49.9007 124.06 48.5599C124.053 48.3515 124.139 48.2834 124.321 48.2888C124.576 48.2964 124.832 48.2906 125.088 48.2906C125.088 48.2894 125.088 48.2882 125.088 48.287Z" fill="#1F2937"/>
<path fill-rule="evenodd" clip-rule="evenodd" d="M99.6911 28.9809C99.6913 26.9729 99.6973 24.9649 99.6848 22.9569C99.683 22.6487 99.7608 22.5513 100.052 22.5532C101.842 22.5646 103.631 22.5654 105.42 22.5496C105.748 22.5467 105.848 22.6618 105.827 23.0005C105.803 23.403 105.8 23.8101 105.826 24.2122C105.849 24.568 105.742 24.6932 105.401 24.6867C104.404 24.6676 103.405 24.6785 102.407 24.6817C101.932 24.6832 101.908 24.7098 101.906 25.2072C101.903 25.8851 101.915 26.5635 101.9 27.2411C101.893 27.5766 102.006 27.7045 102.325 27.6977C103.079 27.6817 103.834 27.7047 104.588 27.6901C104.847 27.6851 104.932 27.7786 104.922 28.0504C104.905 28.506 104.899 28.9637 104.92 29.4189C104.935 29.7416 104.834 29.8553 104.528 29.8478C103.786 29.8298 103.043 29.8525 102.301 29.8374C102.004 29.8314 101.893 29.9402 101.899 30.2652C101.914 31.1254 101.915 31.9864 101.9 32.8465C101.894 33.1952 102.022 33.2898 102.333 33.2852C103.428 33.2687 104.524 33.2884 105.62 33.273C105.916 33.2687 106.034 33.3573 106.017 33.6897C105.994 34.1447 106.003 34.6023 106.014 35.0583C106.021 35.3145 105.958 35.4339 105.689 35.4326C103.79 35.4234 101.891 35.422 99.9924 35.435C99.6629 35.4372 99.6899 35.2327 99.69 35.0048C99.6913 32.9969 99.6908 30.9889 99.6911 28.9809Z" fill="#1F2937"/>
<path fill-rule="evenodd" clip-rule="evenodd" d="M98.2743 43.6579C97.5155 43.6579 96.8139 43.6579 96.0818 43.6579C96.0475 43.3208 96.0329 42.9851 95.9765 42.6579C95.8419 41.8797 95.3865 41.5036 94.6028 41.4942C93.7787 41.4845 93.311 41.8392 93.1518 42.6085C93.1153 42.7851 93.0956 42.9694 93.0953 43.1503C93.0917 45.0282 93.0933 46.9061 93.0947 48.7841C93.0948 48.9012 93.0956 49.0201 93.1138 49.135C93.3062 50.3565 94.6414 50.8964 95.5589 50.1201C95.8891 49.8407 95.9871 49.4322 96.022 49.0097C96.0477 48.6988 96.0493 48.384 96.0399 48.0718C96.0326 47.8314 96.1216 47.7518 96.3397 47.756C96.8874 47.7665 97.4353 47.7608 97.9832 47.7583C98.145 47.7575 98.2666 47.7797 98.2685 48.0057C98.276 48.872 98.2212 49.7295 97.9087 50.5401C97.4764 51.6615 96.6585 52.2807 95.568 52.4851C94.5309 52.6794 93.5061 52.6474 92.5395 52.1197C92.0017 51.8261 91.5846 51.3952 91.3353 50.8077C91.2334 50.5674 91.1639 50.2878 91.1626 50.0257C91.1495 47.4305 91.1806 44.8348 91.1403 42.2402C91.1231 41.1294 91.6021 40.3565 92.4388 39.8941C93.8806 39.0974 95.3842 39.1013 96.8071 39.9717C97.7514 40.5493 98.0739 41.5774 98.2102 42.674C98.2496 42.9909 98.2529 43.3129 98.2743 43.6579Z" fill="#1F2937"/>
</svg>
