<svg width="190" height="141" viewBox="0 0 190 141" fill="none" xmlns="http://www.w3.org/2000/svg">
<path d="M36.5186 80.6837C36.1931 81.0464 35.6723 80.9627 35.5421 80.3675C36.2117 80.3303 36.4907 80.3954 36.5186 80.6837Z" fill="#111827"/>
<path d="M59.8708 80.3675C59.7407 80.9627 59.2199 81.0464 58.8944 80.6837C58.9223 80.3954 59.2106 80.3303 59.8708 80.3675Z" fill="#111827"/>
<path d="M47.7065 95.6753H48.5156V93.434H47.7065V95.6753Z" fill="#111827"/>
<path d="M51.3614 85.7801H52.1705V83.5388H51.3614V85.7801Z" fill="#111827"/>
<path d="M43.2146 89.1467L43.6703 89.2676C43.5877 89.3565 43.5832 89.4672 43.5798 89.5521C43.5782 89.5915 43.5768 89.6253 43.568 89.6489C43.568 89.6582 43.5773 89.6582 43.5866 89.6489C43.6331 89.5838 43.7726 89.3978 44.033 89.4071C44.0431 89.4071 44.0477 89.4071 44.0483 89.4086C44.0488 89.4099 44.0465 89.4122 44.0423 89.4164C43.9586 89.4536 43.6703 89.6303 43.7633 89.9837C43.7633 90.0023 43.7819 90.0023 43.7912 89.993C43.9028 89.8349 44.1074 89.7605 44.1911 89.7326L44.1074 90.3464C44.5817 90.4859 45.1025 90.1697 45.149 89.6303L44.6189 89.5094C45.1955 89.0909 45.9674 88.8119 46.6835 88.8119C47.8181 88.8119 48.5435 90.0395 48.5435 90.7649C48.5435 90.9416 48.5249 91.2113 48.3854 91.4159C48.1715 91.7135 48.0134 91.6484 47.939 91.574C47.9111 91.5554 47.9018 91.5647 47.9111 91.5926C48.0041 91.9832 48.5156 91.9646 48.5807 91.7693C48.5993 91.7135 48.6179 91.7321 48.6272 91.7507C48.754 92.1926 49.0785 92.2043 49.4495 92.2177C49.8671 92.2328 50.3437 92.25 50.6639 92.8853C50.636 92.9039 50.3384 93.062 50.1617 92.9504C49.8176 92.7365 49.6409 92.9504 49.5758 93.0992C49.5665 93.1271 49.5758 93.1364 49.5944 93.1271C49.9664 93.0434 50.1152 93.2852 50.1338 93.3503C49.8548 93.2294 49.4642 93.3689 49.6409 93.8525C49.6502 93.8804 49.6688 93.8804 49.6781 93.8525C49.799 93.5177 50.0873 93.6386 50.1152 93.6572C49.9478 93.7409 49.7153 94.0664 50.1245 94.3361C50.1431 94.3454 50.1524 94.3361 50.1524 94.3175C50.1152 94.0757 50.2268 93.899 50.4035 93.899L50.4117 93.899C50.5105 93.8993 50.751 93.8999 50.8685 93.6107C51.0359 93.899 51.3707 93.7874 51.5288 93.7316C51.5474 93.713 51.5474 93.6944 51.5195 93.6851C51.3056 93.62 51.0266 93.4712 51.2591 93.3038C51.2591 93.3038 51.7148 93.4712 51.8822 93.0341C51.9008 93.0062 51.8915 92.9876 51.8636 93.0062C51.8614 93.0069 51.8567 93.009 51.8499 93.0121C51.7687 93.0489 51.3813 93.2242 51.287 92.8295C51.2756 92.7792 51.2648 92.7233 51.2535 92.6646C51.2 92.387 51.1348 92.0491 50.9429 91.9646C51.2033 91.853 51.287 91.6484 51.0917 91.3694C51.0824 91.3508 51.0545 91.3229 51.0545 91.3694C51.0266 92.0111 49.6781 91.481 49.6502 90.5789C50.5988 90.8207 51.5381 90.5882 51.5381 89.6396C51.5381 89.1011 51.2296 88.7379 50.9773 88.4407C50.8025 88.2349 50.6546 88.0608 50.6546 87.8819C50.6546 87.5657 50.9243 87.4913 51.0545 87.4913C51.4172 87.4913 51.8357 87.9284 51.9101 88.2818C51.9101 88.3004 51.9287 88.3004 51.9473 88.2818C52.0775 88.0958 52.1054 87.7982 51.9938 87.7145C51.9659 87.6866 51.9938 87.6494 52.031 87.6773C52.1147 87.7424 52.8308 87.6773 52.8308 87.1844C52.8308 87.0944 52.8173 87.0232 52.8063 86.965C52.7969 86.915 52.7893 86.8747 52.7936 86.8403C52.8029 86.7752 52.7006 86.7566 52.6727 86.831L52.6699 86.8394C52.6317 86.9547 52.5525 87.1937 52.2077 87.1937C52.0652 87.1937 51.8739 87.1596 51.6742 87.1241C51.4567 87.0854 51.2294 87.0449 51.0452 87.0449C50.3849 87.0449 50.1431 87.5471 50.1431 87.8912C50.1431 88.2866 50.3503 88.5176 50.555 88.7458C50.7548 88.9684 50.9522 89.1884 50.9522 89.5559C50.9522 90.1046 50.1803 90.2813 49.6223 89.7605C49.4828 89.1188 49.3526 88.6538 48.9899 88.1144C48.0886 88.407 47.644 88.1546 47.2435 87.9272C47.0076 87.7933 46.7871 87.668 46.4975 87.668C46.1485 87.668 45.7407 88.0048 45.3328 88.3416C44.9799 88.6331 44.6269 88.9246 44.312 88.9979L44.405 88.3097L44.4794 88.2911L44.4608 87.7145C44.4608 87.7145 44.3027 88.0865 44.2841 88.1423C44.2655 88.1888 44.2469 88.1888 44.2283 88.1516C44.1632 87.9842 44.0144 87.6494 44.0144 87.6494C44.0144 87.6494 44.0051 88.0958 44.0051 88.1981C44.0051 88.226 43.9772 88.2353 43.9586 88.2074L43.6145 87.7052C43.6145 87.7052 43.6982 88.0958 43.7447 88.3097C43.754 88.3376 43.7261 88.3469 43.7075 88.3283L43.2425 87.8819L43.4843 88.4864C43.4936 88.5143 43.475 88.5329 43.4471 88.5143C43.3634 88.4585 42.9356 88.1702 42.9356 88.1702C42.9356 88.1702 43.1402 88.4678 43.289 88.6817C43.3076 88.7096 43.2983 88.7282 43.2611 88.7189C42.9542 88.6073 42.7403 88.5236 42.7403 88.5236C42.7403 88.5236 42.9356 88.7096 43.1495 88.9235C43.1681 88.9421 43.1681 88.97 43.1216 88.97H42.6473L43.1774 89.2025L43.2146 89.1467Z" fill="#111827"/>
<path d="M44.8663 93.5016C45.0078 93.5527 45.1284 93.5963 45.2606 93.434C45.33 93.7377 45.6342 93.7338 45.7803 93.7319C45.7908 93.7317 45.8005 93.7316 45.8093 93.7316C45.8093 93.7316 45.8186 93.7223 45.8093 93.713C45.6605 93.62 45.6047 93.5084 45.6047 93.4247C45.6047 93.2108 46.0418 92.9504 46.172 92.9504C46.2271 92.9504 46.2672 92.9737 46.3134 93.0006C46.3765 93.0373 46.451 93.0806 46.5905 93.0806C46.6928 93.0806 46.8137 93.0341 46.9253 92.9039C46.9439 92.8853 46.9346 92.876 46.916 92.8853C46.6184 92.9597 46.4417 92.6714 46.4417 92.1599C46.4417 91.1912 46.9445 91.0038 48.0738 90.5828L48.1343 90.5603C48.1529 90.551 48.1529 90.5231 48.125 90.5324C47.9018 90.5789 47.5949 90.2255 47.9018 89.8535C47.6972 89.714 47.4461 89.6024 47.2508 89.6024C46.4539 89.6024 45.8311 90.3891 45.6279 90.6458C45.6058 90.6738 45.5886 90.6954 45.5768 90.7091C45.4652 90.8393 45.2327 91.0625 45.0932 90.8672C45.0746 90.8393 45.0653 90.8486 45.0653 90.8765C45.0653 91.2671 45.3815 91.2764 45.5117 91.202C45.521 91.1927 45.5303 91.1927 45.5303 91.2113C45.4838 91.6205 45.7349 92.3087 45.7442 92.3273C45.7163 92.3645 45.335 92.7179 45.0746 92.7179C44.9955 92.7179 44.9444 92.649 44.8879 92.5729C44.8181 92.4789 44.74 92.3738 44.591 92.3738C44.5073 92.3738 44.4236 92.411 44.3399 92.504C44.3306 92.5133 44.3306 92.5319 44.3585 92.5319C44.5631 92.5412 44.684 92.6621 44.6375 92.8481C44.3771 92.6342 43.9958 92.6714 44.0051 93.155C44.0051 93.1736 44.0237 93.1829 44.033 93.1643C44.2097 92.9039 44.4887 93.0899 44.5166 93.1178C44.3306 93.1457 44.0051 93.3596 44.2934 93.7502C44.3027 93.7595 44.312 93.7595 44.312 93.7409C44.312 93.6572 44.3585 93.4433 44.6096 93.4433C44.705 93.4433 44.7888 93.4736 44.8663 93.5016Z" fill="#111827"/>
<path d="M47.567 84.7757C47.5298 84.7664 47.2508 84.7385 46.9904 84.8036C46.5719 84.9152 46.358 84.7571 46.3208 84.6083C46.3115 84.5618 46.2743 84.5618 46.265 84.6083C46.172 84.9431 46.4231 85.1756 46.6463 85.1756C46.8085 85.1756 46.9005 85.1198 47.0089 85.0539C47.1304 84.9802 47.2726 84.8938 47.5577 84.8594C47.6042 84.8501 47.6042 84.785 47.567 84.7757Z" fill="#111827"/>
<path d="M44.1167 85.6499C44.1725 85.6778 44.3306 85.7429 44.3771 85.6778L44.5445 85.436L44.9351 85.622L45.1211 85.3616L44.7863 85.25L46.3673 83.0273C46.4045 82.9715 46.3859 82.6367 46.3766 82.5158C46.265 82.5437 45.9395 82.6367 45.9023 82.6925L44.2934 84.8966L44.0795 84.6176L43.8935 84.878L44.1911 85.1942L44.0423 85.3988C43.7075 85.1942 43.4006 85.436 43.2983 85.5476C43.289 85.5569 43.2983 85.5569 43.3076 85.5569C43.4099 85.529 43.7819 85.4453 43.7819 85.6964C43.3727 85.5755 43.2146 85.8452 43.1681 85.9382C43.1588 85.9568 43.1681 85.9568 43.1774 85.9568C43.2518 85.9289 43.5122 85.8638 43.6238 85.9754L43.2983 86.4311C43.2239 86.5241 43.568 86.7752 43.6424 86.6822L44.0702 86.087C44.0702 86.087 45.4652 86.831 45.8093 87.0449C45.8372 86.7566 45.9395 86.4869 46.1069 86.2637C45.6791 86.1521 44.8049 85.8638 44.8049 85.8638C44.7677 85.9382 44.6189 85.994 44.5166 85.994C44.2934 85.994 44.1446 85.7429 44.1074 85.6592C44.0981 85.6499 44.1074 85.6406 44.1167 85.6499Z" fill="#111827"/>
<path fill-rule="evenodd" clip-rule="evenodd" d="M50.4128 85.7243C50.1431 85.8173 50.0222 85.5197 50.0222 85.3151C50.0222 85.2826 50.0269 85.2344 50.0327 85.1746C50.0587 84.9093 50.1069 84.4163 49.8641 84.0596C49.9478 83.9201 50.4593 83.6969 50.6174 83.669C50.6732 83.6597 50.6732 83.6225 50.6174 83.5946C50.5127 83.5491 50.3411 83.5504 50.1835 83.5515C50.019 83.5527 49.8696 83.5538 49.8269 83.5016C49.8269 83.5016 49.7339 82.7948 49.706 82.7762C49.6781 82.7576 49.0457 83.0924 49.0457 83.0924C48.973 83.0876 48.8852 82.9591 48.7902 82.82C48.7027 82.6921 48.6091 82.5551 48.5156 82.4972C48.4691 82.4693 48.4412 82.4879 48.4598 82.5344C48.5249 82.6739 48.6365 83.2226 48.5714 83.3714C48.0041 83.3156 47.8181 83.5295 47.7809 83.6876C47.6414 83.7248 47.1113 84.0224 47.1113 84.134C47.1113 84.1712 47.1485 84.2456 47.195 84.2735C47.195 84.2735 47.1671 84.4688 47.3345 84.6176C47.6972 84.3665 48.1715 84.413 48.0878 84.878C48.0878 84.878 48.0041 84.9803 47.5577 84.9803C47.5577 84.9803 47.5763 85.1384 47.6135 85.1849C47.6135 85.1849 47.5112 85.3058 47.5856 85.4267C47.5856 85.4267 47.9855 85.2314 48.1994 85.2872C48.2831 85.5104 48.2087 85.808 47.567 85.9103C46.7672 86.0405 46.3301 86.2637 46.2464 87.1379C46.749 87.0929 47.1003 87.2778 47.4712 87.4731C47.5601 87.5199 47.6501 87.5672 47.7437 87.6122C48.4691 87.947 49.2689 87.4727 49.2689 87.4727C49.0922 87.3146 49.055 86.8496 49.3433 86.6357C49.4921 86.9333 49.8176 86.9612 50.0315 86.8124C50.0501 86.7938 50.0501 86.7659 50.0315 86.7566C49.6874 86.5706 49.6409 86.2451 49.8083 85.901C49.985 86.1614 50.3942 85.9568 50.4314 85.7336C50.4407 85.7243 50.4221 85.715 50.4128 85.7243ZM48.3389 83.9015C47.9762 83.8829 47.7344 83.9573 47.753 84.0782C47.9297 84.2642 48.1622 84.2456 48.3389 83.9015Z" fill="#111827"/>
<path fill-rule="evenodd" clip-rule="evenodd" d="M24.4287 23.731H70.9287V116.731H24.4287V23.731ZM36.6953 81.995C36.6953 81.9113 37.1138 81.9113 37.1789 81.9113C37.5573 81.9113 37.7508 81.9575 37.9221 81.9985C38.058 82.031 38.18 82.0601 38.3693 82.0601C38.7134 82.0601 39.0389 81.9113 39.104 81.6416C39.1226 81.5765 39.1784 81.5486 39.2063 81.6509C39.3737 82.2461 38.9459 82.5251 38.5367 82.5251C38.3036 82.5251 38.124 82.4399 37.9171 82.3418C37.7195 82.2481 37.4969 82.1425 37.1789 82.088C37.0722 82.0708 36.9783 82.0651 36.9022 82.0604C36.7728 82.0525 36.6953 82.0477 36.6953 81.995ZM32.7309 84.1618C32.7283 84.1582 32.726 84.1551 32.7242 84.1526C32.1755 84.4595 31.7198 84.0596 31.7105 83.7248C31.7105 83.669 31.7384 83.6783 31.7663 83.6876C32.2778 83.9387 32.5475 83.39 32.4266 82.832C32.4211 82.8063 32.4142 82.7767 32.4064 82.7438C32.3215 82.3829 32.1401 81.6119 32.7707 80.9813C33.4403 81.3719 33.896 80.7302 33.7844 80.4233C33.7565 80.3396 33.7007 80.3303 33.7007 80.4326C33.7007 80.6465 33.4868 80.8046 33.3287 80.8046C33.059 80.8046 32.5568 80.4977 32.5196 80.0327C33.2171 79.577 34.4075 79.763 34.64 80.6279C34.6679 80.7395 34.7981 80.7302 34.7888 80.6186C34.7883 80.6148 34.7878 80.6098 34.7871 80.6037C34.7753 80.4922 34.7253 80.0193 34.2401 79.7723C33.7844 79.5398 33.9518 79.1957 34.0727 79.0748C34.1192 79.019 34.2122 79.0283 34.1843 79.0841C34.0076 79.391 34.3889 79.5305 34.919 79.4654C36.035 79.3166 36.407 79.7258 36.4628 80.0141C36.7046 80.0792 37.6532 80.6093 37.6532 80.8046C37.6532 80.8604 37.5974 80.9999 37.5044 81.0464C37.5044 81.0464 37.5323 81.4556 37.2347 81.716C36.0443 80.9999 35.7188 81.6695 35.8397 82.1438C35.8397 82.1438 36.0443 82.3205 36.8441 82.3205C36.8441 82.3205 36.8069 82.6088 36.7418 82.6925C36.7418 82.6925 36.9278 82.9157 36.7976 83.1296C36.7976 83.1296 36.3884 82.8227 35.6816 82.8506C35.6816 82.8506 35.2259 83.5388 36.9092 83.8643C38.6018 84.1898 39.1319 85.7801 39.1319 86.6543C39.1319 86.6915 39.1133 86.7194 39.0761 86.7101C38.4113 86.5835 37.9225 86.8527 37.3925 87.1445C36.8326 87.4528 36.2267 87.7864 35.3189 87.7052C35.4677 87.2867 35.3003 86.8496 35.3003 86.8496C35.1608 87.2216 34.826 87.4634 34.5842 87.5936C33.9611 87.4541 33.5426 87.1472 33.4496 86.9705C33.4496 86.9705 34.1192 86.4218 33.6821 85.4174C33.6821 85.4174 33.2636 86.087 32.3987 85.7243C32.3243 85.6871 32.3336 85.6406 32.3894 85.622C33.5323 85.2501 32.835 84.3031 32.7309 84.1618ZM56.309 81.6416C56.3741 81.9113 56.6996 82.0601 57.0437 82.0601C57.2337 82.0601 57.3577 82.0307 57.4955 81.9981C57.6679 81.9573 57.8619 81.9113 58.2341 81.9113C58.2992 81.9113 58.7176 81.9113 58.7176 81.995C58.7176 82.0532 58.6411 82.0568 58.5131 82.0627C58.4366 82.0662 58.3418 82.0706 58.2341 82.088C57.916 82.1425 57.6934 82.2481 57.4958 82.3418C57.2889 82.4399 57.1093 82.5251 56.8763 82.5251C56.4671 82.5251 56.0393 82.2461 56.2067 81.6509C56.2346 81.5486 56.2904 81.5765 56.309 81.6416ZM63.6466 83.669C63.6745 83.6597 63.7024 83.6504 63.7024 83.7062C63.7024 84.0596 63.2374 84.4595 62.6887 84.134C62.6869 84.1365 62.6847 84.1396 62.682 84.1432C62.5779 84.2845 61.8806 85.2315 63.0235 85.6034C63.07 85.622 63.0886 85.6685 63.0142 85.7057C62.1493 86.0684 61.7308 85.3988 61.7308 85.3988C61.2937 86.4032 61.9633 86.9519 61.9633 86.9519C61.8703 87.1379 61.4611 87.4355 60.8287 87.575C60.5869 87.4541 60.2521 87.203 60.1126 86.831C60.1126 86.831 59.9359 87.2681 60.094 87.6866C59.1824 87.773 58.5752 87.4385 58.0133 87.1289C57.486 86.8385 56.9986 86.57 56.3369 86.6915C56.2997 86.7008 56.2811 86.6822 56.2811 86.6357C56.2811 85.7615 56.8205 84.1712 58.5037 83.8457C60.187 83.5202 59.7313 82.832 59.7313 82.832C59.0246 82.8041 58.6153 83.111 58.6153 83.111C58.4851 82.9064 58.6712 82.6739 58.6712 82.6739C58.6061 82.5902 58.5689 82.3019 58.5689 82.3019C59.3686 82.2926 59.5826 82.1252 59.5826 82.1252C59.7034 81.6509 59.3686 80.9813 58.1875 81.6974C57.8993 81.4277 57.9179 81.0278 57.9179 81.0278C57.8249 80.9906 57.7691 80.8418 57.7691 80.786C57.7691 80.5907 58.7177 80.0606 58.9594 79.9955C59.0245 79.7165 59.3873 79.298 60.5033 79.4468C61.0241 79.5119 61.4053 79.3724 61.2286 79.0655C61.1914 79.019 61.2937 79.0097 61.3402 79.0562C61.4704 79.1771 61.6378 79.5212 61.1728 79.7537C60.6613 80.0141 60.6241 80.5256 60.6241 80.6C60.6148 80.7116 60.7451 80.7209 60.773 80.6093C61.0055 79.7444 62.1958 79.5584 62.8933 80.0141C62.8561 80.4791 62.3539 80.786 62.0842 80.786C61.9261 80.786 61.7122 80.6279 61.7122 80.414C61.7122 80.3117 61.6564 80.321 61.6285 80.4047C61.5076 80.7116 61.9633 81.3533 62.6423 80.9627C63.2691 81.5895 63.0935 82.3475 63.008 82.7166C62.9997 82.7528 62.9922 82.7852 62.9863 82.8134C62.8654 83.3807 63.1351 83.9201 63.6466 83.669ZM47.5112 70.7792C47.4647 70.7048 47.3996 70.5746 47.3996 70.4258C47.3996 70.1747 47.567 70.0445 47.7065 70.0445C47.846 70.0445 48.0134 70.1747 48.0134 70.4258C48.0134 70.5746 47.9576 70.7048 47.9018 70.7792C47.7995 70.928 47.8181 71.0117 47.8646 71.0582C47.9111 71.1047 47.9948 71.1233 48.1436 71.021C48.218 70.9745 48.3482 70.9094 48.497 70.9094C48.7481 70.9094 48.8783 71.0768 48.8783 71.2163C48.8783 71.3558 48.7481 71.5232 48.497 71.5232C48.3482 71.5232 48.218 71.4674 48.1436 71.4116C47.9948 71.3093 47.9111 71.3279 47.8646 71.3744C47.8195 71.4195 47.888 71.9105 47.9431 72.3048L47.9483 72.3416C48.3668 72.4253 48.5714 72.7694 48.5714 72.9647C48.5714 73.4762 48.0227 73.7738 47.7065 73.9412L47.698 73.9366C47.3717 73.7595 46.8416 73.4718 46.8416 72.9647C46.8416 72.7694 47.0462 72.4346 47.4647 72.3416C47.5298 71.9324 47.5949 71.4209 47.5484 71.3744C47.5019 71.3279 47.4182 71.3093 47.2694 71.4116C47.195 71.4581 47.0648 71.5232 46.916 71.5232C46.6649 71.5232 46.5347 71.3558 46.5347 71.2163C46.5347 71.0768 46.6649 70.9094 46.916 70.9094C47.0648 70.9094 47.195 70.9652 47.2694 71.021C47.4182 71.1233 47.5019 71.1047 47.5484 71.0582C47.5949 71.0117 47.6135 70.928 47.5112 70.7792ZM47.0834 74.8247C47.0834 74.4806 47.3624 74.2016 47.7065 74.2016C48.0506 74.2016 48.3296 74.4806 48.3296 74.8247C48.3296 75.1688 48.0506 75.4478 47.7065 75.4478C47.3624 75.4478 47.0834 75.1688 47.0834 74.8247ZM51.5846 80.6372C51.5846 80.6372 50.1896 80.1629 47.7065 80.1629C45.2234 80.1629 43.8284 80.6372 43.8377 80.6372C43.8372 80.6042 43.8367 80.5717 43.8362 80.5395C43.8191 79.3456 43.8096 78.6869 43.1123 78.7865C43.3109 78.2521 42.9708 77.8836 42.5885 77.4694C42.219 77.0692 41.8103 76.6264 41.8103 75.95C41.8103 75.0479 42.452 74.9456 42.638 74.9456C42.9283 74.9456 43.0449 75.0438 43.1568 75.138C43.2599 75.2248 43.359 75.3083 43.5866 75.3083C43.5993 75.3083 43.6126 75.3073 43.6255 75.3064C43.6688 75.3032 43.7075 75.3004 43.7075 75.3362C43.7075 75.4943 43.5773 75.764 43.3541 75.764C43.193 75.764 43.1164 75.6768 43.0461 75.5969C42.9865 75.529 42.9314 75.4664 42.8333 75.4664C42.7403 75.4664 42.6008 75.5501 42.6008 75.8477C42.6008 76.4336 42.9821 77.0753 43.4378 77.5775C43.5401 77.438 43.6796 77.345 43.847 77.345C44.1167 77.345 44.3492 77.624 44.3492 77.9681C44.3492 78.0983 44.3306 78.182 44.2841 78.2936C44.4329 78.3773 44.5631 78.4238 44.6654 78.4238C44.87 78.4238 45.1769 78.3401 45.1769 77.8937C45.1769 77.4259 44.883 76.9849 44.5716 76.5175C44.2204 75.9905 43.847 75.4299 43.847 74.7596C43.847 74.1551 44.2562 73.5599 45.0932 73.5599C45.5604 73.5599 45.7407 73.7795 45.9146 73.9912C46.0764 74.1882 46.2325 74.3783 46.6091 74.3783C46.6463 74.3783 46.6742 74.3969 46.6742 74.4248C46.6742 74.4806 46.5347 74.9363 46.1348 74.9363C45.9088 74.9363 45.7673 74.7374 45.6306 74.5453C45.503 74.3658 45.3796 74.1923 45.1955 74.1923C45.056 74.1923 44.8421 74.276 44.8421 74.7782C44.8421 75.1688 45.0374 75.8012 45.3164 76.415C45.4187 76.3127 45.5489 76.2383 45.707 76.2383C46.0418 76.2383 46.2836 76.5545 46.2836 76.9451C46.2836 77.1869 46.1906 77.4194 46.0232 77.5775C46.2185 77.8286 46.4231 78.0332 46.6928 78.0332C47.2229 78.0332 47.4647 77.7263 47.4647 77.3915C47.4647 77.2349 47.335 77.1203 47.1906 76.9927C47.0091 76.8323 46.8044 76.6513 46.8044 76.3406C46.8044 75.9593 47.0462 75.7454 47.288 75.7454C47.4841 75.7454 47.6064 75.8404 47.6667 75.8873C47.6865 75.9026 47.6996 75.9128 47.7065 75.9128C47.7133 75.9128 47.7264 75.9026 47.7462 75.8873C47.8065 75.8404 47.9288 75.7454 48.125 75.7454C48.3575 75.7454 48.6086 75.9593 48.6086 76.3406C48.6086 76.6495 48.4062 76.8273 48.2255 76.9861C48.0798 77.114 47.9483 77.2296 47.9483 77.3915C47.9483 77.7263 48.1808 78.0332 48.7202 78.0332C48.9899 78.0332 49.1945 77.8286 49.3898 77.5775C49.2224 77.4287 49.1294 77.1869 49.1294 76.9451C49.1294 76.5638 49.3712 76.2383 49.706 76.2383C49.8548 76.2383 49.9943 76.3127 50.0966 76.415C50.3756 75.8105 50.5709 75.1688 50.5709 74.7782C50.5709 74.276 50.357 74.1923 50.2175 74.1923C50.0266 74.1923 49.9001 74.3699 49.7708 74.5516C49.6354 74.7417 49.4969 74.9363 49.2782 74.9363C48.8783 74.9363 48.7388 74.4806 48.7388 74.4248C48.7388 74.3876 48.7667 74.3783 48.8039 74.3783C49.1804 74.3783 49.3366 74.1882 49.4983 73.9912C49.6722 73.7795 49.8525 73.5599 50.3198 73.5599C51.1661 73.5599 51.566 74.1551 51.566 74.7596C51.566 75.4299 51.1925 75.9905 50.8413 76.5175C50.5299 76.9849 50.2361 77.4259 50.2361 77.8937C50.2361 78.3401 50.543 78.4238 50.7476 78.4238C50.8406 78.4238 50.9801 78.3773 51.1289 78.2936C51.0824 78.1913 51.0638 78.0983 51.0638 77.9681C51.0638 77.624 51.2963 77.345 51.566 77.345C51.7427 77.345 51.8822 77.438 51.9845 77.5775C52.4402 77.0753 52.8215 76.4336 52.8215 75.8477C52.8215 75.5408 52.682 75.4664 52.589 75.4664C52.4854 75.4664 52.4299 75.5305 52.3704 75.5992C52.3017 75.6785 52.2276 75.764 52.0682 75.764C51.845 75.764 51.7148 75.4943 51.7148 75.3362C51.7148 75.3004 51.7535 75.3032 51.7968 75.3064C51.8096 75.3073 51.8229 75.3083 51.8357 75.3083C52.0632 75.3083 52.1623 75.2248 52.2654 75.138C52.3773 75.0438 52.4939 74.9456 52.7843 74.9456C52.9703 74.9456 53.612 75.0479 53.612 75.95C53.612 76.6206 53.2047 77.0629 52.8359 77.4636C52.4527 77.8798 52.1109 78.2511 52.31 78.7865C51.599 78.6849 51.5939 79.3718 51.5848 80.6104L51.5846 80.6372ZM41.7824 82.367C41.9963 82.3019 42.4799 82.1624 43.1588 82.0136V83.8457H43.9679V81.8555C45.0002 81.6695 46.2929 81.5021 47.7065 81.5021C50.6081 81.5021 53.054 82.1903 53.6306 82.367C53.6213 82.0694 53.5097 81.7997 53.24 81.7346C53.2028 81.7253 53.2028 81.6788 53.2307 81.6602C53.8259 81.2603 54.1514 82.0229 54.1607 82.0508C54.3746 82.0322 54.7001 82.0973 54.7001 82.3856C54.7001 83.2505 56.6717 83.7248 57.1273 83.7992C56.3183 84.1154 55.9835 85.1291 55.9835 85.1291C55.3976 84.5432 54.7094 84.0317 54.5606 84.0317C54.4118 84.0317 54.3467 84.227 54.3374 84.3386C54.3281 84.3758 54.3002 84.3944 54.2723 84.3572C54.0262 83.9805 54.0789 83.8389 54.1203 83.7276C54.129 83.7043 54.1372 83.6823 54.1421 83.6597C54.1607 83.5574 54.1328 83.1575 53.6864 83.204V88.9607L53.9189 89.0072C53.9749 89.0174 54.2511 88.8073 54.6484 88.5053C54.9767 88.2556 55.3877 87.9431 55.8254 87.6401C56.7099 87.0277 57.2211 87.3099 58.1414 87.8178C58.2274 87.8653 58.317 87.9147 58.4108 87.9656C59.8523 88.7468 61.3031 88.04 61.3031 88.04C62.5492 88.9328 62.9677 91.4903 62.9677 91.4903C63.2095 91.5926 63.6187 91.7042 64.0093 91.7042C64.9486 91.7042 65.1253 91.1369 65.1253 90.7928C65.1253 90.0604 64.6644 89.5386 64.2049 89.0185C63.7483 88.5017 63.2932 87.9865 63.2932 87.2681C63.2932 86.924 63.4513 85.5011 65.209 85.5011H66.7807C67.3819 85.5011 67.5707 85.1045 67.6693 84.8974C67.6775 84.8802 67.685 84.8643 67.6921 84.8501C67.72 84.785 67.7944 84.8222 67.7665 84.878C67.7388 84.9381 67.757 85.0143 67.7824 85.1202C67.808 85.2275 67.8409 85.3652 67.8409 85.5476C67.8409 86.1335 67.4968 86.4869 66.8551 86.4869C66.5668 86.4869 66.2878 86.4032 66.2041 86.3474C66.139 86.3102 66.1111 86.3753 66.139 86.4032C66.418 86.7287 66.4366 87.3332 66.325 87.482C66.2971 87.5192 66.2692 87.5099 66.2599 87.482C66.1018 86.8682 65.5252 86.2823 64.744 86.2823C63.795 86.2823 63.7954 87.0765 63.7954 87.2811V87.2867C63.7954 87.8263 64.2312 88.3008 64.7014 88.8128C65.2524 89.4127 65.8507 90.0642 65.8507 90.9323C65.8507 92.5691 64.1302 92.9225 63.1258 92.6621C63.1909 94.2989 65.0602 94.8569 65.116 93.6851C65.116 93.6386 65.1625 93.62 65.1904 93.6944C65.4229 94.271 65.3299 94.7825 64.6045 94.9406C64.558 94.9592 64.5766 94.9871 64.6231 95.015C65.2276 95.3947 65.0572 96.7106 64.962 97.4456C64.943 97.5927 64.927 97.7166 64.9207 97.805C64.8649 98.5676 65.6275 98.4746 65.6926 98.456C65.7205 98.4467 65.7484 98.4653 65.7019 98.5211C65.1625 99.1814 64.4929 98.5769 64.4929 98.5769C63.9907 98.735 64.3069 99.1628 64.6417 99.386C64.6882 99.4232 64.6882 99.4604 64.6324 99.4604C64.558 99.4697 63.7768 99.5348 63.6373 98.9117C63.2932 99.3209 62.7817 99.1721 62.6794 99.1163C62.5306 99.0326 61.8052 98.7722 61.7308 99.5906C61.7226 99.6402 61.6997 99.6164 61.6751 99.5909C61.672 99.5877 61.6689 99.5844 61.6657 99.5813C61.1171 98.8838 61.7122 98.456 62.0377 98.4095C62.0098 98.3723 61.5727 98.0003 61.1728 98.5118C61.1449 98.549 61.1171 98.549 61.1171 98.4839C61.0706 97.6004 61.7866 97.526 62.2516 97.9073C62.2798 97.8134 62.4274 97.3214 61.7308 97.34C61.7122 97.34 61.675 97.3214 61.7122 97.2842C62.2598 96.7088 62.7055 97.2355 62.809 97.3578C63.0447 97.6389 63.6258 97.5407 63.7065 97.5269L63.7118 97.526C63.5951 95.6983 62.589 95.3506 61.7185 95.0498C61.1317 94.847 60.6065 94.6655 60.4568 94.0664C60.4475 93.992 60.4102 94.0199 60.401 94.0478C60.2986 94.4105 59.3872 94.4663 59.2198 93.7502C59.2105 93.7037 59.2105 93.6665 59.2477 93.7037C60.0289 94.4756 61.7866 92.0483 59.3872 90.0674C57.3413 88.3748 55.5092 89.3141 54.8117 89.8721C54.7745 90.1139 54.9233 90.1976 55.0163 90.2255C55.0535 90.2348 55.0628 90.272 55.007 90.2906C54.8117 90.365 54.542 90.3464 54.4118 90.1604C53.9654 90.4673 54.3467 90.8486 54.5234 90.9602C54.5699 90.9881 54.5513 91.016 54.5141 91.0253C54.1049 91.0997 53.7794 90.6812 53.7608 90.4487L53.6957 90.4859V92.225C53.6957 93.9296 52.3444 94.6186 50.4788 95.5699C49.6369 95.9992 48.6903 96.4819 47.7158 97.1354C46.7456 96.4877 45.8021 96.0074 44.9618 95.5797C43.0876 94.6258 41.7266 93.933 41.7266 92.225V90.4859L41.6615 90.4487C41.6429 90.6905 41.3081 91.0997 40.9082 91.0253C40.871 91.016 40.8524 90.9881 40.8989 90.9602C41.0756 90.8579 41.4476 90.4673 41.0105 90.1604C40.8803 90.3371 40.6106 90.365 40.4153 90.2906C40.3595 90.2627 40.3688 90.2348 40.406 90.2255C40.499 90.1976 40.6478 90.1139 40.6106 89.8721C39.9131 89.3234 38.081 88.3841 36.035 90.0674C33.6356 92.0483 35.3933 94.4849 36.1745 93.7037C36.2024 93.6758 36.2117 93.7037 36.2024 93.7502C36.035 94.457 35.1236 94.4105 35.0213 94.0478C35.0213 94.0199 34.9841 93.992 34.9655 94.0664C34.8157 94.6654 34.2893 94.8469 33.7015 95.0496C32.8291 95.3505 31.8216 95.6979 31.7105 97.526C31.7176 97.526 31.7337 97.528 31.757 97.5308C31.9151 97.5502 32.4017 97.61 32.6126 97.3586C32.7242 97.2284 33.1706 96.7076 33.71 97.2842C33.7379 97.3121 33.71 97.34 33.6914 97.34C33.0359 97.3225 33.136 97.7568 33.1659 97.8863C33.1678 97.8946 33.1694 97.9017 33.1706 97.9073C33.6356 97.526 34.3517 97.6004 34.3052 98.4839C34.3052 98.5583 34.2773 98.549 34.2494 98.5118C33.8495 98.0003 33.4124 98.3723 33.3845 98.4095C33.7193 98.456 34.3052 98.8838 33.7565 99.5813C33.7286 99.6092 33.6914 99.6464 33.6914 99.5906C33.6263 98.7722 32.8916 99.0419 32.7428 99.1163C32.6405 99.1721 32.129 99.3209 31.7849 98.9117C31.6454 99.5348 30.8642 99.4697 30.7898 99.4604C30.734 99.4604 30.7247 99.4232 30.7805 99.386C31.1246 99.1628 31.4315 98.735 30.9293 98.5769C30.9293 98.5769 30.2597 99.1814 29.7203 98.5211C29.6645 98.456 29.7017 98.4467 29.7296 98.456C29.7947 98.4746 30.5573 98.5676 30.5015 97.805C30.4953 97.7166 30.4792 97.5927 30.4602 97.4456C30.365 96.7106 30.1947 95.3947 30.7991 95.015C30.8456 94.9778 30.8642 94.9499 30.8177 94.9406C30.0923 94.7825 29.9993 94.271 30.2318 93.6944C30.2597 93.62 30.3062 93.6293 30.3062 93.6851C30.362 94.8569 32.2406 94.2989 32.2964 92.6621C31.3013 92.9132 29.5715 92.5691 29.5715 90.9323C29.5715 90.0581 30.1714 89.4064 30.723 88.8072C31.1924 88.2973 31.6268 87.8254 31.6268 87.2867L31.6268 87.2811C31.6269 87.0765 31.6272 86.2823 30.6782 86.2823C29.897 86.2823 29.3204 86.8682 29.1623 87.482C29.1623 87.5099 29.1251 87.5192 29.0972 87.482C28.9856 87.3425 29.0042 86.7287 29.2832 86.4032C29.3111 86.366 29.2739 86.3102 29.2181 86.3474C29.1344 86.4032 28.8554 86.4869 28.5671 86.4869C27.9254 86.4869 27.5813 86.1335 27.5813 85.5476C27.5813 85.3612 27.6132 85.2215 27.6379 85.1132C27.6613 85.0109 27.6783 84.9368 27.6557 84.878C27.6278 84.8222 27.6929 84.7757 27.7301 84.8501C27.7391 84.8673 27.7488 84.8872 27.7594 84.9093C27.8585 85.1145 28.0453 85.5011 28.6415 85.5011H30.2132C31.9709 85.5011 32.129 86.9147 32.129 87.2681C32.129 87.9865 31.6739 88.5017 31.2173 89.0185C30.7578 89.5386 30.2969 90.0604 30.2969 90.7928C30.2969 91.1276 30.4643 91.7042 31.4129 91.7042C31.7942 91.7042 32.2034 91.5926 32.4545 91.4903C32.4545 91.4903 32.8823 88.9235 34.1192 88.04C34.1192 88.04 35.57 88.7468 37.0115 87.9656C37.1088 87.9128 37.2015 87.8616 37.2903 87.8125C38.2032 87.3079 38.7061 87.0299 39.5876 87.6401C40.0043 87.9314 40.4 88.2316 40.7224 88.4762C41.141 88.7938 41.4363 89.0177 41.4941 89.0072L41.7266 88.9607V83.204C41.2802 83.1575 41.2523 83.5574 41.2709 83.6597C41.2761 83.6857 41.2854 83.7104 41.2953 83.7363C41.3384 83.8496 41.3904 83.9864 41.1407 84.3572C41.1128 84.3851 41.0756 84.3758 41.0756 84.3386C41.0663 84.227 41.0105 84.0317 40.8524 84.0317C40.6943 84.0317 40.0154 84.5432 39.4295 85.1291C39.4295 85.1291 39.0947 84.1061 38.2856 83.7992C38.7413 83.7248 40.7129 83.2505 40.7129 82.3856C40.7129 82.0973 41.0384 82.0322 41.2523 82.0508C41.2616 82.0229 41.5778 81.2603 42.1823 81.6602C42.2195 81.6788 42.2102 81.7253 42.173 81.7346C41.9033 81.7904 41.7917 82.0694 41.7824 82.367ZM37.4486 101.944C37.4486 102.232 37.5881 102.371 37.802 102.455C37.802 102.353 38.1275 101.646 40.3223 101.637V102.678C40.3223 103.835 39.0887 103.533 37.4528 103.132C36.5757 102.918 35.583 102.675 34.6028 102.613C32.2685 102.464 31.6175 103.06 31.6175 103.06L32.0453 100.707C32.0732 100.576 32.5754 100.214 34.1843 100.214C36.0299 100.214 36.995 100.549 37.3903 100.686C37.4113 100.694 37.4307 100.7 37.4486 100.707V101.944ZM55.0907 102.688V101.646C57.2948 101.646 57.6202 102.353 57.611 102.455C57.8248 102.362 57.9644 102.223 57.9644 101.944V100.707C57.9863 100.699 58.0103 100.691 58.0367 100.682C58.4473 100.542 59.411 100.214 61.2286 100.214C62.8375 100.214 63.349 100.576 63.3676 100.707L63.7954 103.069C63.7954 103.069 63.1444 102.474 60.8101 102.622C59.8304 102.684 58.8382 102.926 57.9614 103.139C56.3249 103.538 55.0907 103.838 55.0907 102.688ZM57.4249 101.497C56.8297 100.809 52.2356 100.576 47.7065 100.576C43.1867 100.576 38.5925 100.818 37.9694 101.497C37.9229 101.544 37.9043 101.488 37.9043 101.451V99.0512C37.9043 98.3537 42.6473 97.9445 47.6972 97.9445C52.7471 97.9445 57.4901 98.3537 57.4901 99.0512V101.451C57.4901 101.497 57.4714 101.553 57.4249 101.497ZM40.7057 96.8914C40.4444 96.982 40.2179 97.0606 39.9875 96.7634C39.8573 97.3586 39.197 97.3028 39.0389 97.2749C39.0203 97.2749 39.0203 97.2563 39.0296 97.247C39.2435 97.1168 39.4016 96.9215 39.4016 96.7169C39.4016 96.3449 38.6855 95.8613 38.3507 95.8613C38.2698 95.8613 38.1969 95.9028 38.1114 95.9514C37.9906 96.0201 37.8448 96.1031 37.616 96.1031C37.4114 96.1031 37.1789 96.0194 36.9836 95.7776C36.9743 95.759 36.9743 95.7497 37.0022 95.7497C37.0075 95.7506 37.0131 95.7515 37.0189 95.7526C37.1971 95.7832 37.6132 95.8548 37.8113 95.0894C38.0252 94.2617 38.0903 93.6665 37.7276 93.3503C37.4265 93.0935 36.181 92.6175 35.4123 92.3236C35.3737 92.3089 35.3363 92.2946 35.3003 92.2808C35.2631 92.2622 35.2631 92.2343 35.3003 92.225C35.5049 92.1692 35.7095 92.039 35.7374 91.7879C35.756 91.6298 35.7188 91.4066 35.5421 91.3043C35.9048 90.9044 36.6395 90.6254 37.0301 90.6254C37.9388 90.6254 38.7609 91.3747 39.4009 91.958C39.8088 92.3298 40.1428 92.6342 40.3781 92.6342C40.4525 92.6342 40.5455 92.6063 40.6385 92.4761C40.6571 92.4482 40.6757 92.4482 40.6757 92.4947C40.6757 93.0992 40.3502 93.155 40.1828 93.155C40.0805 93.155 39.9782 93.1271 39.9038 93.0806C39.8852 93.0713 39.8759 93.0806 39.8759 93.0992C39.8759 93.1114 39.8776 93.1289 39.8796 93.1486C39.8822 93.174 39.8852 93.2032 39.8852 93.2294C39.8852 93.9455 39.1412 94.7267 39.1412 94.7267C39.4853 95.0801 40.3316 95.6753 40.5641 95.3591C40.5755 95.3456 40.591 95.3237 40.6105 95.2963C40.7657 95.0777 41.1698 94.5089 41.6987 95.0708C41.7173 95.0894 41.6987 95.1173 41.6615 95.1173C41.3267 95.1173 41.0663 95.3405 41.1593 95.6846C41.6429 95.3033 42.3032 95.3684 42.3032 96.2519C42.3032 96.2891 42.266 96.2984 42.2474 96.2705C41.9219 95.8148 41.429 96.1217 41.3546 96.1868C41.6894 96.2426 42.2753 96.6332 41.7638 97.3307C41.7359 97.3586 41.7173 97.3586 41.7173 97.3307C41.6708 96.8657 41.3918 96.7913 41.1593 96.7913C40.9943 96.7913 40.845 96.8431 40.7057 96.8914ZM56.3927 97.247C56.4113 97.2563 56.402 97.2749 56.3834 97.2749C56.2253 97.3028 55.565 97.3586 55.4162 96.7634C55.1788 97.0616 54.9494 96.9815 54.6889 96.8905C54.5513 96.8424 54.4051 96.7913 54.2444 96.7913C54.0212 96.7913 53.7422 96.875 53.6864 97.3307C53.6771 97.3586 53.6585 97.3586 53.6399 97.3307C53.1377 96.6332 53.7143 96.2333 54.0491 96.1868C53.984 96.1217 53.4818 95.8148 53.1656 96.2705C53.147 96.2984 53.1098 96.2891 53.1098 96.2519C53.1098 95.3684 53.7701 95.3033 54.2537 95.6846C54.3467 95.3405 54.0863 95.1173 53.7515 95.1173C53.705 95.1173 53.6957 95.0987 53.7143 95.0708C54.2516 94.4999 54.6601 95.0887 54.8097 95.3043C54.8258 95.3276 54.8389 95.3464 54.8489 95.3591C55.0907 95.666 55.937 95.0801 56.2718 94.7267C56.2718 94.7267 55.5278 93.9455 55.5278 93.2294C55.5278 93.2032 55.5307 93.174 55.5333 93.1486C55.5353 93.1289 55.5371 93.1114 55.5371 93.0992C55.5371 93.0806 55.5278 93.0713 55.5092 93.0806C55.4348 93.1271 55.3232 93.155 55.2302 93.155C55.0628 93.155 54.7373 93.0992 54.7373 92.4947C54.7373 92.4482 54.7559 92.4482 54.7745 92.4761C54.8582 92.6063 54.9605 92.6342 55.0349 92.6342C55.2702 92.6342 55.6041 92.3298 56.012 91.958C56.652 91.3747 57.4741 90.6254 58.3829 90.6254C58.7734 90.6254 59.5081 90.9044 59.8801 91.3043C59.7034 91.4159 59.6662 91.6298 59.6848 91.7879C59.7127 92.039 59.9173 92.1692 60.1219 92.225C60.1592 92.2343 60.1592 92.2622 60.1219 92.2808C60.0738 92.2992 60.0231 92.3186 59.9704 92.3387C59.1982 92.6335 57.9819 93.0978 57.6947 93.3503C57.3227 93.6665 57.397 94.2617 57.611 95.0894C57.8103 95.8595 58.2391 95.7823 58.4073 95.752L58.4201 95.7497C58.4479 95.7404 58.4573 95.759 58.4387 95.7776C58.2434 96.0194 58.0109 96.1031 57.8063 96.1031C57.5797 96.1031 57.4376 96.0217 57.3182 95.9534C57.2319 95.9039 57.1575 95.8613 57.0715 95.8613C56.7275 95.8613 56.0207 96.3449 56.0207 96.7169C56.0207 96.9215 56.1881 97.1075 56.3927 97.247Z" fill="#111827"/>
<path d="M84.3378 66.1536V65.8174C85.2211 65.6636 86.2429 65.5867 87.403 65.5867C89.6882 65.5867 90.8308 66.4546 90.8308 68.1904C90.8308 68.9375 90.6352 69.5593 90.2441 70.0559C89.853 70.5481 89.3124 70.9019 88.6225 71.1172L90.7912 74.0374C91.1691 74.5427 91.6459 74.8899 92.2216 75.0789V75.3755C91.8876 75.5996 91.4965 75.7117 91.0483 75.7117C90.7055 75.7117 90.4155 75.6326 90.1782 75.4744C89.9409 75.3162 89.6816 75.0305 89.4003 74.6174L87.3767 71.5391H86.6516V74.7954L87.6206 75.0327V75.3755C87.0449 75.5469 86.4604 75.6326 85.8671 75.6326C85.3178 75.6326 84.8366 75.582 84.4235 75.481V75.1843C84.7312 75.0964 84.9553 74.9646 85.0959 74.7888C85.2409 74.613 85.3134 74.3582 85.3134 74.0242V66.4634L84.3378 66.1536ZM86.6516 70.7942H87.2448C87.882 70.7942 88.405 70.5898 88.8137 70.1812C89.2224 69.7725 89.4267 69.1858 89.4267 68.4211C89.4267 67.7927 89.2399 67.3049 88.8664 66.9578C88.4929 66.6106 87.9743 66.437 87.3107 66.437C87.1394 66.437 86.9196 66.4546 86.6516 66.4897V70.7942Z" fill="#111827"/>
<path d="M92.5217 68.7705V68.4475C93.1984 68.2498 93.8093 68.1509 94.3542 68.1509H94.842L94.7629 68.988V74.835L95.6264 75.0657V75.3623C95.1386 75.5337 94.5454 75.6172 93.8466 75.6128C93.3896 75.6128 93.0073 75.5688 92.6997 75.481V75.2239C93.2402 75.0173 93.5083 74.7383 93.5039 74.3867V69.1924L92.5217 68.7705ZM93.3325 65.8701C93.3325 65.6196 93.416 65.4043 93.583 65.2241C93.75 65.0439 93.9587 64.9539 94.2092 64.9539C94.4421 64.9539 94.6355 65.0308 94.7893 65.1846C94.9431 65.334 95.02 65.5361 95.02 65.791C95.02 66.0503 94.9365 66.2722 94.7695 66.4568C94.6025 66.6414 94.3981 66.7336 94.1564 66.7336C93.9235 66.7336 93.728 66.6523 93.5698 66.4897C93.4116 66.3271 93.3325 66.1206 93.3325 65.8701Z" fill="#111827"/>
<path d="M96.144 78.6252C96.5131 78.6252 96.8274 78.4187 97.0866 78.0056C97.3503 77.5925 97.4821 77.0168 97.4821 76.2786V69.1924L96.5 68.7705V68.4475C97.1943 68.2498 97.8095 68.1509 98.3457 68.1509H98.8466L98.7544 69.0144V75.9292C98.7544 78.1353 98.1743 79.2361 97.0141 79.2317C96.6274 79.2317 96.3374 79.1108 96.144 78.8691V78.6252ZM97.3239 65.8701C97.3239 65.6196 97.403 65.4043 97.5612 65.2241C97.7238 65.0439 97.937 64.9539 98.2006 64.9539C98.4248 64.9539 98.6137 65.0308 98.7675 65.1846C98.9213 65.334 98.9983 65.5361 98.9983 65.791C98.9983 66.0503 98.917 66.2722 98.7544 66.4568C98.5918 66.6414 98.3852 66.7336 98.1347 66.7336C97.9018 66.7336 97.7085 66.6523 97.5546 66.4897C97.4008 66.3271 97.3239 66.1206 97.3239 65.8701Z" fill="#111827"/>
<path d="M100.373 65.0461V64.71C101.032 64.521 101.647 64.4265 102.218 64.4265H102.733L102.64 65.29V71.4468L103.491 70.7151C103.921 70.3459 104.295 69.9285 104.611 69.4626C104.928 68.9924 105.086 68.5859 105.086 68.2432C105.328 68.1641 105.598 68.1245 105.897 68.1245C106.112 68.1245 106.319 68.1685 106.516 68.2563C106.49 68.6167 106.301 69.043 105.949 69.5352C105.598 70.0229 105.088 70.502 104.42 70.9722L103.88 71.3479L106.246 74.2417C106.659 74.7295 107.041 74.9712 107.393 74.9668V75.2898C107.068 75.5051 106.683 75.6128 106.239 75.6128C105.8 75.6128 105.437 75.4194 105.152 75.0327L102.64 71.7302V74.835L103.451 75.0789V75.3755C102.946 75.5381 102.366 75.6172 101.711 75.6128C101.254 75.6128 100.865 75.5688 100.544 75.481V75.2239C100.777 75.1448 100.975 75.0283 101.137 74.8745C101.3 74.7207 101.381 74.5581 101.381 74.3867V65.4614L100.373 65.0461Z" fill="#111827"/>
<path d="M107.436 74.4526C107.436 74.1934 107.484 73.9824 107.581 73.8198C108.267 74.4658 108.987 74.791 109.743 74.7954C110.165 74.7954 110.488 74.7053 110.712 74.5251C110.941 74.345 111.055 74.1165 111.055 73.8396C111.055 73.5583 110.96 73.3232 110.771 73.1343C110.582 72.9453 110.235 72.741 109.73 72.5212L108.959 72.1982C108.04 71.8027 107.581 71.1699 107.581 70.2998C107.581 69.6714 107.832 69.1375 108.332 68.698C108.833 68.2542 109.475 68.0322 110.257 68.0322C111.409 68.0322 111.984 68.3508 111.984 68.988C111.984 69.1858 111.958 69.4011 111.905 69.634C111.338 69.2385 110.752 69.0408 110.145 69.0408C109.679 69.0408 109.321 69.1309 109.071 69.311C108.825 69.4912 108.702 69.7219 108.702 70.0032C108.702 70.28 108.79 70.5085 108.965 70.6887C109.141 70.8689 109.455 71.0447 109.908 71.2161L110.725 71.5391C111.275 71.7544 111.666 72.0115 111.899 72.3103C112.136 72.6047 112.255 72.9871 112.255 73.4573C112.255 74.0681 111.989 74.5977 111.457 75.0459C110.925 75.4897 110.238 75.7117 109.394 75.7117C108.089 75.7073 107.436 75.2876 107.436 74.4526Z" fill="#111827"/>
<path d="M113.115 72.1719C113.115 70.9458 113.471 69.9504 114.183 69.1858C114.895 68.4167 115.745 68.0322 116.734 68.0322C117.696 68.0322 118.494 68.3618 119.127 69.021C119.764 69.6758 120.082 70.5327 120.082 71.5918C120.082 72.8047 119.722 73.7979 119.001 74.5713C118.281 75.3403 117.439 75.7249 116.477 75.7249C115.514 75.7249 114.712 75.4062 114.071 74.769C113.434 74.1274 113.115 73.2617 113.115 72.1719ZM114.506 72.0269C114.506 72.9189 114.704 73.6111 115.099 74.1033C115.495 74.5911 115.985 74.835 116.569 74.835C117.136 74.835 117.628 74.5625 118.046 74.0176C118.467 73.4727 118.678 72.7102 118.678 71.7302C118.678 70.8645 118.478 70.1812 118.079 69.6802C117.679 69.1748 117.193 68.9221 116.622 68.9221C116.051 68.9221 115.554 69.1968 115.132 69.7461C114.715 70.2954 114.506 71.0557 114.506 72.0269Z" fill="#111827"/>
<path d="M120.251 68.5266V68.1509H123.191V68.5266L122.314 68.8958L123.975 73.7671H123.988L125.702 68.9485L124.825 68.5266V68.1509H127.192V68.5266L126.757 68.8826L124.015 75.6721L123.5 75.6985L120.884 68.9749L120.251 68.5266Z" fill="#111827"/>
<path d="M127.36 72.1851C127.36 70.915 127.681 69.9087 128.323 69.166C128.968 68.4189 129.724 68.0454 130.59 68.0454C131.416 68.0454 132.064 68.3025 132.535 68.8167C133.009 69.3264 133.247 70.0317 133.247 70.9326C133.247 71.3281 133.242 71.6555 133.233 71.9148H128.685C128.685 72.7498 128.9 73.4111 129.331 73.8989C129.762 74.3867 130.307 74.6306 130.966 74.6306C131.766 74.6306 132.491 74.4109 133.141 73.9714C133.176 74.0813 133.194 74.2153 133.194 74.3735C133.194 74.7339 132.95 75.0481 132.462 75.3162C131.979 75.5798 131.339 75.7117 130.544 75.7117C129.643 75.7117 128.887 75.3887 128.276 74.7427C127.666 74.0923 127.36 73.2397 127.36 72.1851ZM128.725 71.104H132.02C132.02 70.3745 131.878 69.823 131.592 69.4495C131.311 69.0715 130.931 68.8826 130.452 68.8826C130.03 68.8826 129.636 69.1045 129.272 69.5483C128.907 69.9922 128.725 70.5107 128.725 71.104Z" fill="#111827"/>
<path d="M134.146 68.7705V68.4343C134.806 68.2454 135.421 68.1509 135.992 68.1509H136.361V69.2319H136.374L136.803 68.7573C137.225 68.3091 137.675 68.085 138.154 68.085C138.695 68.085 138.965 68.3047 138.965 68.7441C138.965 69.0518 138.879 69.3572 138.708 69.6604C138.409 69.4275 138.095 69.311 137.765 69.311C137.3 69.311 136.845 69.522 136.401 69.9438V74.835L137.469 75.0657V75.3623C136.972 75.5337 136.337 75.6172 135.564 75.6128C135.05 75.6128 134.641 75.5688 134.338 75.481V75.2239C134.562 75.1448 134.751 75.0283 134.905 74.8745C135.063 74.7207 135.142 74.5581 135.142 74.3867V69.1924L134.146 68.7705Z" fill="#111827"/>
<path d="M139.179 65.0461V64.71C139.817 64.521 140.432 64.4265 141.025 64.4265H141.513L141.434 65.29V68.9749C142.018 68.408 142.765 68.1245 143.675 68.1245C144.343 68.1245 144.868 68.3289 145.25 68.7375C145.633 69.1462 145.824 69.7417 145.824 70.5239V74.835L146.628 75.0657V75.3623C146.189 75.5337 145.646 75.6172 145 75.6128C144.587 75.6128 144.257 75.5688 144.011 75.481V75.2239C144.38 75.0437 144.565 74.7009 144.565 74.1956V71.2688C144.565 69.8845 144.044 69.1924 143.003 69.1924C142.392 69.1924 141.869 69.3484 141.434 69.6604V74.835L142.297 75.0657V75.3623C141.81 75.5337 141.216 75.6172 140.518 75.6128C140.061 75.6128 139.678 75.5688 139.371 75.481V75.2239C139.911 75.0173 140.179 74.7383 140.175 74.3867V65.4614L139.179 65.0461Z" fill="#111827"/>
<path d="M147.548 72.1851C147.548 70.915 147.869 69.9087 148.51 69.166C149.156 68.4189 149.912 68.0454 150.778 68.0454C151.604 68.0454 152.252 68.3025 152.722 68.8167C153.197 69.3264 153.434 70.0317 153.434 70.9326C153.434 71.3281 153.43 71.6555 153.421 71.9148H148.873C148.873 72.7498 149.088 73.4111 149.519 73.8989C149.949 74.3867 150.494 74.6306 151.154 74.6306C151.953 74.6306 152.678 74.4109 153.329 73.9714C153.364 74.0813 153.382 74.2153 153.382 74.3735C153.382 74.7339 153.138 75.0481 152.65 75.3162C152.167 75.5798 151.527 75.7117 150.732 75.7117C149.831 75.7117 149.075 75.3887 148.464 74.7427C147.853 74.0923 147.548 73.2397 147.548 72.1851ZM148.912 71.104H152.208C152.208 70.3745 152.065 69.823 151.78 69.4495C151.499 69.0715 151.118 68.8826 150.639 68.8826C150.218 68.8826 149.824 69.1045 149.459 69.5483C149.095 69.9922 148.912 70.5107 148.912 71.104Z" fill="#111827"/>
<path d="M154.347 68.7705V68.4475C155.024 68.2498 155.635 68.1509 156.18 68.1509H156.668L156.589 68.988V74.835L157.452 75.0657V75.3623C156.964 75.5337 156.371 75.6172 155.672 75.6128C155.215 75.6128 154.833 75.5688 154.525 75.481V75.2239C155.066 75.0173 155.334 74.7383 155.33 74.3867V69.1924L154.347 68.7705ZM155.158 65.8701C155.158 65.6196 155.242 65.4043 155.409 65.2241C155.576 65.0439 155.784 64.9539 156.035 64.9539C156.268 64.9539 156.461 65.0308 156.615 65.1846C156.769 65.334 156.846 65.5361 156.846 65.791C156.846 66.0503 156.762 66.2722 156.595 66.4568C156.428 66.6414 156.224 66.7336 155.982 66.7336C155.749 66.7336 155.554 66.6523 155.396 66.4897C155.237 66.3271 155.158 66.1206 155.158 65.8701Z" fill="#111827"/>
<path d="M158.418 72.3367C158.418 71.0051 158.772 69.9614 159.479 69.2056C160.187 68.4497 161.061 68.0718 162.103 68.0718C162.525 68.0718 162.876 68.1025 163.157 68.1641V65.4614L162.116 65.0461V64.71C162.775 64.521 163.41 64.4265 164.021 64.4265H164.522L164.423 65.29V74.1165C164.551 74.468 164.744 74.7646 165.003 75.0063C164.744 75.2393 164.386 75.4788 163.929 75.7249C163.612 75.4744 163.368 75.1689 163.197 74.8086C162.947 75.0591 162.635 75.2678 162.261 75.4348C161.887 75.6018 161.542 75.6853 161.226 75.6853C160.426 75.6853 159.758 75.3799 159.222 74.769C158.686 74.1538 158.418 73.343 158.418 72.3367ZM159.756 72.0928C159.756 72.8926 159.936 73.5254 160.297 73.9912C160.657 74.4526 161.092 74.6833 161.602 74.6833C162.248 74.6833 162.775 74.5164 163.184 74.1824V69.0935C162.859 68.9749 162.481 68.9177 162.05 68.9221C161.365 68.9221 160.811 69.1946 160.389 69.7395C159.967 70.2844 159.756 71.0688 159.756 72.0928Z" fill="#111827"/>
</svg>
