<svg width="180" height="76" viewBox="0 0 180 76" fill="none" xmlns="http://www.w3.org/2000/svg">
<path d="M58.7921 34.6291C58.8871 36.5881 58.9809 38.5227 59.0775 40.5163C51.7523 40.9277 44.4708 41.3367 37.1409 41.7485C37.0993 40.9616 37.0586 40.2207 37.0214 39.4795C36.9667 38.3898 36.9204 37.2997 36.8574 36.2107C36.8412 35.9304 36.9058 35.8151 37.1922 35.7998C41.6107 35.564 46.0288 35.318 50.4468 35.0717C53.0527 34.9264 55.6584 34.7764 58.2641 34.6303C58.4163 34.6216 58.5693 34.6291 58.7921 34.6291Z" fill="#1F2937"/>
<path d="M37.5678 50.5897C37.471 48.5988 37.3769 46.6648 37.2798 44.6697C44.6033 44.2584 51.8748 43.85 59.2208 43.4374C59.3181 45.4026 59.4145 47.3474 59.5141 49.3576C52.1997 49.7683 44.905 50.1779 37.5678 50.5897Z" fill="#1F2937"/>
<path d="M58.3564 25.749C58.4539 27.7292 58.5492 29.6663 58.6479 31.6697C51.3368 32.0803 44.0527 32.4894 36.7031 32.9021C36.6063 30.9342 36.5114 29.0016 36.4121 26.9826C43.726 26.5714 51.0204 26.1614 58.3564 25.749Z" fill="#1F2937"/>
<path d="M87.8105 41.8416C87.6899 39.3814 87.5739 37.009 87.4569 34.6367C87.404 33.562 87.343 32.4877 87.2969 31.4127C87.2547 30.4313 87.6294 30.0069 88.5407 29.9651C89.0007 29.9442 89.4648 29.8571 89.9185 29.9009C90.2275 29.9306 90.6409 30.0412 90.8034 30.277C92.0523 32.0903 93.4094 33.8285 94.3702 35.8527C94.5151 36.1577 94.6081 36.4907 94.7398 36.8035C94.7779 36.8941 94.8677 36.9597 94.9338 37.0369C94.9647 36.9264 95.0295 36.8129 95.0217 36.7056C94.8558 34.4276 94.6817 32.1499 94.51 29.8725C94.5054 29.8136 94.5094 29.754 94.5094 29.6336C95.5522 29.5739 96.5865 29.5147 97.6587 29.4535C97.7106 30.4713 97.7618 31.4527 97.8105 32.4343C97.9329 34.8968 98.0602 37.359 98.1729 39.822C98.2215 40.8857 97.9038 41.2516 96.9043 41.3283C96.4728 41.3614 96.0392 41.3601 95.6081 41.3962C95.1307 41.4358 94.7581 41.2467 94.4902 40.8358C93.4913 39.3038 92.4643 37.7909 91.5212 36.22C91.136 35.5782 90.9381 34.8073 90.6016 33.9613C90.5475 34.1664 90.4799 34.2926 90.488 34.4126C90.646 36.7511 90.813 39.0887 90.9766 41.4269C90.9808 41.4849 90.9687 41.5443 90.9596 41.6624C89.9213 41.7214 88.8866 41.7803 87.8105 41.8416Z" fill="#1F2937"/>
<path d="M78.2801 34.7382C78.2752 34.8972 78.2573 35.0574 78.2676 35.2153C78.4196 37.5539 78.5757 39.8922 78.7293 42.2308C78.731 42.2567 78.713 42.2844 78.6918 42.3486C77.6803 42.407 76.6557 42.4665 75.5809 42.5287C75.5439 41.8786 75.5045 41.258 75.474 40.6369C75.3339 37.7867 75.193 34.9361 75.0597 32.0854C75.0156 31.1407 75.3498 30.7416 76.2332 30.6689C76.7476 30.6264 77.2677 30.5572 77.7779 30.6001C78.0688 30.6246 78.4521 30.7671 78.6105 30.9997C79.7277 32.641 80.8138 34.3079 81.8712 35.9943C82.1463 36.4332 82.2792 36.9731 82.4898 37.4606C82.5368 37.5694 82.6356 37.6525 82.7344 37.7774C82.5615 35.2426 82.3958 32.8094 82.2263 30.3247C83.3122 30.2596 84.3362 30.1986 85.4076 30.1345C85.4412 30.6623 85.4796 31.1625 85.5041 31.6636C85.6499 34.6334 85.7963 37.6035 85.9338 40.5739C85.9792 41.5534 85.6058 41.9693 84.685 42.0149C84.2251 42.0375 83.7654 42.0653 83.3057 42.0903C82.899 42.1125 82.5548 41.9607 82.3223 41.6057C81.281 40.0149 80.2176 38.4389 79.2328 36.8087C78.8623 36.1955 78.6827 35.4497 78.4162 34.7643C78.3708 34.7558 78.3255 34.747 78.2801 34.7382Z" fill="#1F2937"/>
<path d="M71.2044 36.7347C71.3426 36.7523 71.4804 36.7764 71.619 36.7868C73.0087 36.8914 73.7781 37.6059 73.9943 39.0758C74.0694 39.5868 74.0719 40.1246 74.019 40.6398C73.9237 41.5682 73.4347 42.2515 72.6016 42.5117C71.8582 42.7439 71.0783 42.9045 70.3063 42.9562C68.6076 43.0698 66.9038 43.0949 65.2018 43.1548C65.0493 43.1602 64.8963 43.1555 64.6835 43.1555C64.4909 39.2154 64.2995 35.2992 64.1052 31.3234C64.8828 31.2444 65.6266 31.1355 66.3734 31.0999C67.9052 31.027 69.4424 30.8982 70.9704 30.9667C73.0268 31.0589 74.1239 33.1319 73.2928 35.1722C72.9814 35.9365 72.3623 36.2452 71.6598 36.4278C71.5064 36.4677 71.3532 36.5083 71.2 36.5486C71.2015 36.6106 71.203 36.6726 71.2044 36.7347ZM67.8926 40.64C68.6065 40.5829 69.2593 40.5439 69.9092 40.4739C70.2895 40.4331 70.5242 40.1808 70.536 39.7654C70.5476 39.35 70.5407 38.93 70.4951 38.5179C70.4491 38.1007 70.2029 37.8215 69.8001 37.8208C69.1249 37.8197 68.4498 37.866 67.7561 37.8931C67.8027 38.831 67.8462 39.7055 67.8926 40.64ZM67.6712 35.7849C68.3372 35.7355 68.9613 35.6947 69.5843 35.6407C69.9179 35.6117 70.1398 35.4046 70.1654 35.0505C70.1897 34.7129 70.1689 34.3669 70.1292 34.0299C70.0773 33.5903 69.7996 33.3787 69.4028 33.3881C68.795 33.4022 68.1879 33.4475 67.5983 33.4788C67.5983 33.9611 67.59 34.4044 67.6013 34.8471C67.6088 35.1424 67.6441 35.4371 67.6712 35.7849Z" fill="#1F2937"/>
<path d="M131.473 39.3892C130.232 39.4596 129.05 39.5267 127.846 39.5952C127.541 38.4584 127.248 37.3555 126.95 36.2538C126.754 35.529 126.53 35.3663 125.829 35.4157C125.484 35.44 125.139 35.4559 124.771 35.477C124.84 36.904 124.906 38.29 124.976 39.7483C123.845 39.8158 122.727 39.8823 121.563 39.9519C121.369 35.9993 121.178 32.0928 120.983 28.124C121.774 28.0357 122.533 27.9164 123.295 27.873C124.674 27.7944 126.055 27.752 127.436 27.7154C127.739 27.7073 128.049 27.7652 128.349 27.8291C129.377 28.0481 130.186 28.5819 130.458 29.7389C130.737 30.927 130.809 32.1299 129.839 33.0168C129.433 33.3873 128.856 33.5412 128.359 33.7985C128.272 33.8438 128.196 33.9139 128.114 33.9725C128.198 34.0306 128.277 34.1243 128.368 34.141C129.579 34.3625 130.277 35.1209 130.581 36.3952C130.819 37.39 131.161 38.3565 131.473 39.3892ZM124.651 33.0057C125.063 32.9814 125.409 32.9575 125.755 32.9409C127.005 32.8814 127.237 32.5963 127.12 31.2588C127.117 31.2291 127.116 31.1991 127.112 31.1696C127.038 30.5674 126.771 30.2793 126.21 30.2578C125.657 30.2367 125.103 30.2531 124.513 30.2531C124.562 31.2328 124.605 32.0916 124.651 33.0057Z" fill="#1F2937"/>
<path d="M143.588 38.7095C142.455 38.7744 141.358 38.8434 140.261 38.8873C140.177 38.8905 140.041 38.7321 140.007 38.6217C139.837 38.0692 139.705 37.5034 139.53 36.9527C139.494 36.8413 139.332 36.6969 139.232 36.7002C138.229 36.732 137.227 36.7917 136.196 36.8448C136.067 37.5989 135.941 38.3303 135.801 39.1431C134.657 39.2083 133.497 39.2743 132.267 39.3445C132.405 38.6702 132.525 38.0638 132.653 37.4594C133.289 34.4597 133.925 31.46 134.566 28.4612C134.73 27.6908 135.065 27.3685 135.805 27.3159C136.863 27.2405 137.922 27.1831 138.981 27.1417C139.637 27.1161 140.031 27.3951 140.234 28.0321C141.347 31.5206 142.45 35.0127 143.555 38.5039C143.568 38.5456 143.569 38.5915 143.588 38.7095ZM136.618 34.3716C137.355 34.328 138.056 34.2866 138.796 34.2428C138.419 32.7494 138.055 31.3062 137.682 29.831C137.541 29.8505 137.396 29.8704 137.293 29.8846C137.066 31.3962 136.847 32.8514 136.618 34.3716Z" fill="#1F2937"/>
<path d="M113.221 38.1429C113.101 38.8488 112.998 39.4972 112.872 40.1403C112.849 40.2561 112.735 40.4359 112.654 40.4415C111.558 40.5168 110.46 40.5665 109.294 40.626C109.455 39.8555 109.605 39.132 109.758 38.4093C110.368 35.5253 110.979 32.6412 111.592 29.758C111.76 28.9702 112.134 28.6406 112.869 28.6008C113.901 28.5451 114.932 28.4778 115.963 28.4277C116.668 28.3936 117.069 28.6889 117.294 29.3956C118.382 32.8158 119.466 36.2369 120.55 39.6583C120.581 39.7542 120.592 39.857 120.62 39.995C119.44 40.0626 118.289 40.1284 117.108 40.1959C116.926 39.5346 116.759 38.8908 116.565 38.2566C116.529 38.138 116.382 37.9691 116.291 37.9726C115.275 38.012 114.26 38.0807 113.221 38.1429ZM114.324 31.1484C114.097 32.6659 113.878 34.1327 113.652 35.6541C114.397 35.6108 115.096 35.57 115.825 35.5277C115.446 34.0251 115.083 32.5896 114.72 31.1484C114.591 31.1484 114.455 31.1484 114.324 31.1484Z" fill="#1F2937"/>
<path d="M98.6272 29.3969C99.8035 29.3304 100.903 29.2594 102.003 29.2218C102.096 29.2186 102.252 29.4229 102.285 29.5572C102.957 32.3021 103.615 35.0508 104.276 37.7988C104.3 37.8977 104.326 37.9959 104.348 38.0853C104.661 38.1728 104.706 38.0109 104.743 37.7404C105.131 34.8862 105.533 32.0341 105.932 29.1816C105.94 29.124 105.969 29.07 105.998 28.9864C107.159 28.92 108.324 28.8534 109.539 28.7837C109.325 29.8497 109.125 30.8553 108.921 31.8601C108.394 34.459 107.868 37.0579 107.337 39.6557C107.176 40.445 106.805 40.7765 106.064 40.8196C105.102 40.8754 104.141 40.9303 103.179 40.984C102.536 41.0198 102.094 40.6832 101.874 39.9697C100.977 37.0626 100.085 34.1538 99.1919 31.2454C99.01 30.653 98.8297 30.0598 98.6272 29.3969Z" fill="#1F2937"/>
</svg>
