<svg width="181" height="76" viewBox="0 0 181 76" fill="none" xmlns="http://www.w3.org/2000/svg">
<path fill-rule="evenodd" clip-rule="evenodd" d="M120.069 61.8907C121.065 61.5392 121.709 61.1292 121.709 60.2507V16.2054C121.709 15.3268 121.007 14.8582 120.069 14.5654C120.069 14.5654 108.531 10.0554 90.6668 10.0554C72.8027 10.0554 61.2643 14.5654 61.2643 14.5654C60.3271 14.8582 59.6243 15.3268 59.6243 16.2054V60.2507C59.6243 61.1292 60.3271 61.5978 61.2643 61.8907C61.2643 61.8907 73.1541 66.2835 90.6668 66.2835C109.292 66.2835 120.069 61.8907 120.069 61.8907ZM73.0958 49.646H67.883V57.143H69.9329V54.2731H73.0372V52.7502H69.9329V51.1688H73.0958V49.646ZM75.2629 49.646H77.3129V57.2016H75.2629V49.646ZM82.352 49.646H79.7748V57.2602H81.7077V53.1016C81.7077 52.8595 81.692 52.6644 81.6769 52.4757C81.6628 52.2992 81.6491 52.1284 81.6491 51.9302H81.7077C81.7077 52.2231 81.942 52.8088 82.2348 53.3945L84.1677 57.2602H86.8033V49.7045H84.8705V53.3945C84.8705 54.0974 84.9291 54.6245 84.9876 54.9759H84.8705C84.6948 54.3902 84.4605 53.8045 84.2262 53.3359L82.352 49.646ZM96.5261 57.2016H94.359L93.8904 55.6202H91.079L90.5518 57.1431H88.5019L91.2547 49.5874H93.8904L96.5261 57.2016ZM93.4218 54.156L92.8361 52.3988C92.6604 51.9303 92.5433 51.4617 92.5433 51.2274H92.4847C92.4261 51.6374 92.2504 52.106 92.1333 52.3988L91.5476 54.156H93.4218ZM100.859 49.646H98.2815V57.2602H100.214V53.1016C100.214 52.8595 100.199 52.6644 100.184 52.4757C100.169 52.2992 100.156 52.1284 100.156 51.9302H100.214C100.214 52.2231 100.449 52.8088 100.741 53.3945L102.674 57.2602H105.31V49.7045H103.377V53.3945C103.377 54.0974 103.436 54.6245 103.494 54.9759H103.377C103.201 54.3902 102.967 53.8045 102.733 53.3359L100.859 49.646ZM109.177 54.7453C109.177 55.0382 109.47 55.7996 110.407 55.7996C110.993 55.7996 111.461 55.5653 111.461 55.0968C111.461 54.6868 111.227 54.5111 110.466 54.2768L109.236 53.8668C108.299 53.5154 107.479 52.8711 107.479 51.8168C107.479 50.2354 108.884 49.474 110.641 49.474C112.657 49.474 113.102 50.589 113.296 51.0746C113.305 51.0967 113.313 51.1175 113.321 51.1368L113.326 51.1484L113.336 51.1725L111.52 51.7582C111.461 51.5239 111.227 50.9382 110.524 50.9382C109.821 50.9382 109.529 51.2311 109.529 51.5825C109.529 51.9925 109.763 52.1096 110.524 52.4025L111.93 52.9296C112.926 53.2811 113.511 53.8668 113.511 54.8625C113.511 55.9753 112.75 57.3225 110.29 57.3225C108.059 57.3225 107.56 55.9817 107.374 55.4825L107.361 55.4482L109.177 54.7453ZM74.6188 22.9999C70.4603 22.9999 68.2931 25.4599 67.356 28.2713L69.2889 28.9742C70.0503 27.2756 71.1046 24.9328 74.3845 24.9328C79.0702 24.9328 79.1873 28.1542 79.3045 31.9613H77.8402C72.3345 31.9613 66.3603 32.7227 66.3603 39.2241C66.3603 42.6212 68.586 45.1983 72.3345 45.1983C75.6145 45.1983 77.6059 43.2069 79.3045 41.3326L79.4216 44.7297H81.5302C81.5302 44.6006 81.5185 44.2272 81.5026 43.7159L81.5026 43.7149L81.5026 43.7146C81.4679 42.6029 81.413 40.8403 81.413 39.5169V30.3213C81.413 26.7485 80.0659 22.9999 74.6188 22.9999ZM77.8988 33.6598H79.3045V39.1655C79.1882 39.2765 79.0744 39.3854 78.9626 39.4923L78.962 39.493C76.5978 41.7549 75.2025 43.0898 72.686 43.0898C70.8117 43.0898 68.6446 42.0941 68.6446 38.9312C68.6446 34.3627 72.5688 33.6598 77.8988 33.6598ZM82.9963 23.4061H85.5734L90.8448 31.8989L96.5262 23.4061H98.9276L92.2505 33.4217L99.4547 44.7259H96.819L90.8448 35.1203L84.6363 44.7259H82.0592L89.4391 33.5388L82.9963 23.4061ZM115.269 34.187C115.269 29.8527 113.746 22.9999 106.659 22.9999C99.5717 22.9999 98.0489 29.8527 98.0489 34.187C98.0489 39.5755 100.509 45.1983 106.659 45.1983C112.809 45.1983 115.269 39.5755 115.269 34.187ZM113.043 33.7184C113.043 40.0441 110.583 43.2655 106.659 43.2655C102.735 43.2655 100.275 40.0441 100.275 33.7184C100.275 29.3842 102.032 24.9328 106.659 24.9328C111.286 24.9328 113.043 29.3842 113.043 33.7184Z" fill="#1F2937"/>
</svg>
