<svg width="190" height="140" viewBox="0 0 190 140" fill="none" xmlns="http://www.w3.org/2000/svg">
<path d="M100.691 73.6157C100.691 66.3417 88.6977 70.2158 88.6977 65.978C88.6977 64.0829 90.4548 63.6756 92.6057 63.6756C93.5986 63.6756 94.5075 63.9714 95.275 64.4838C96.0794 64.9924 96.6685 65.7597 96.9512 66.7122H99.5565V61.5622H97.1061V63.1308C95.6822 61.9257 93.8578 61.1953 91.9863 61.1953C88.8862 61.1953 85.8467 62.545 85.8467 66.0558C85.8467 74.1309 97.8399 69.5633 97.8399 73.8751C97.8399 76.1775 95.1639 76.3257 93.7064 76.3257C91.6935 76.3257 89.0713 75.4068 88.2971 72.9596H85.8467V78.4396H88.2971V76.7599C89.7244 78.3689 92.0267 78.8063 94.1069 78.8063C97.473 78.8063 100.691 77.3823 100.691 73.6157Z" fill="#1A202C"/>
<path d="M64.8462 64.0082V61.5611H59.2182V64.1193H59.1105C57.9424 62.4397 55.5357 61.1943 53.3714 61.1943C48.1506 61.1943 45 65.0315 45 69.9628C45 74.8975 48.1506 78.8053 53.3714 78.8053C55.5357 78.8053 57.9424 77.6003 59.1105 75.8836H59.2182V78.4385H64.8462V75.9913H61.9986V64.0082H64.8462ZM53.671 76.3246C49.8303 76.3246 48.1506 73.2178 48.1506 69.9628C48.1506 66.8189 49.8303 63.6751 53.671 63.6751C56.4042 63.6751 59.1509 65.9438 59.1509 69.9628C59.1509 73.9819 56.4042 76.3246 53.671 76.3246Z" fill="#1A202C"/>
<path d="M77.3366 76.3238C77.3366 75.0413 76.2763 73.9844 74.9905 73.9844C73.7215 73.9844 72.6914 75.0413 72.6914 76.3238C72.6914 77.6365 73.7215 78.6262 74.9905 78.6262C76.2763 78.6262 77.3366 77.6365 77.3366 76.3238Z" fill="#1A202C"/>
<path d="M134.912 63.9704V61.1934C132.027 61.1934 129.614 62.1796 128.405 64.8825H128.335V61.5603H122.559V64.0074H125.373V75.9939H122.559V78.441H131.66V75.9939H128.513V70.2178C128.513 65.9429 129.725 64.3339 134.912 63.9704Z" fill="#1A202C"/>
<path d="M110.918 73.9824C109.642 73.9824 108.615 75.0428 108.615 76.3219C108.615 77.6381 109.642 78.6242 110.918 78.6242C112.2 78.6242 113.254 77.6381 113.254 76.3219C113.254 75.0428 112.2 73.9824 110.918 73.9824Z" fill="#1A202C"/>
<path d="M142.664 78.6242C143.946 78.6242 145 77.6381 145 76.3219C145 75.0428 143.946 73.9824 142.664 73.9824C141.388 73.9824 140.361 75.0428 140.361 76.3219C140.361 77.6381 141.388 78.6242 142.664 78.6242Z" fill="#1A202C"/>
</svg>
