<svg width="180" height="76" viewBox="0 0 180 76" fill="none" xmlns="http://www.w3.org/2000/svg">
<path d="M57.896 47.3505C58.0245 47.2028 58.1944 47.0971 58.3837 47.0471C58.573 46.997 58.7729 47.005 58.9576 47.0699C59.3458 47.1985 59.5258 47.4955 59.4978 47.9561C59.4401 49.3981 58.6038 50.8697 56.9888 52.3709C55.3738 53.872 53.2818 54.6219 50.7128 54.6203C47.5685 54.6203 45.0011 53.607 43.0104 51.5805C41.0198 49.554 40.0244 46.918 40.0244 43.6724C40.0244 40.5547 41.0704 37.9942 43.1624 35.9911C44.152 35.0171 45.3255 34.2496 46.6145 33.7333C47.9035 33.2171 49.2823 32.9624 50.6707 32.984C53.2943 32.984 55.3278 33.5896 56.7713 34.8009C58.2148 36.0121 58.9366 37.3824 58.9366 38.9116C58.9366 40.126 58.3738 41.0208 57.2483 41.596L48.6364 46.4433C49.8195 48.3139 51.4642 49.2492 53.5702 49.2492C54.4427 49.2549 55.3061 49.0706 56.1002 48.7091C56.8056 48.418 57.424 47.9501 57.896 47.3505ZM49.892 35.1049C49.0269 35.1049 48.3254 35.5375 47.7876 36.4026C47.2498 37.2678 46.9832 38.3496 46.9879 39.6482C46.9578 41.1873 47.1749 42.7212 47.6309 44.1915L51.6574 41.769C52.0183 41.5282 52.3112 41.1988 52.5082 40.8123C52.7051 40.4257 52.7995 39.9951 52.7822 39.5617C52.7677 38.5406 52.5257 37.5357 52.0737 36.6201C51.606 35.6099 50.8788 35.1049 49.892 35.1049Z" fill="#1A202C"/>
<path d="M83.9422 49.4714C84.02 50.2461 84.3042 50.9858 84.7652 51.6133C85.2532 52.321 85.4979 52.8619 85.4995 53.236V53.4091C85.4995 53.9593 85.1534 54.2337 84.4613 54.2322H75.8096C75.1174 54.2322 74.7714 53.9578 74.7714 53.4091V53.236C74.7714 52.89 75.0449 52.3561 75.5921 51.6343C76.1393 50.9125 76.3848 50.1916 76.3287 49.4714L75.8961 41.7246C75.7807 39.5921 75.4993 38.0776 75.0519 37.1813C74.8712 36.7684 74.57 36.4196 74.1879 36.1806C73.8058 35.9416 73.3604 35.8234 72.9101 35.8414C72.4906 35.8227 72.0739 35.9173 71.7036 36.1152C71.3333 36.3131 71.0231 36.607 70.8056 36.9662C70.3379 37.7167 70.1041 38.7386 70.1041 40.0387V49.4714C70.1041 50.1931 70.4213 50.9141 71.0558 51.6343C71.6918 52.3568 72.0075 52.89 72.0075 53.236V53.4091C72.0075 53.9593 71.6614 54.2337 70.9693 54.2322H61.6161C60.924 54.2322 60.5779 53.9578 60.5779 53.4091V53.236C60.5779 52.89 60.8936 52.3568 61.5296 51.6343C62.1656 50.9118 62.4813 50.1939 62.4813 49.4714V40.9459C62.4965 40.3807 62.2948 39.831 61.9177 39.4097C61.5691 39.0159 61.1856 38.6543 60.772 38.3294C60.3838 38.0254 60.1874 37.7004 60.1874 37.3543V37.2257C60.1874 36.8516 60.5334 36.4891 61.2256 36.1431L67.2841 33.1571C67.8313 32.9232 68.2428 32.9232 68.5187 33.136C68.7947 33.3488 68.9303 33.7066 68.9303 34.1953V36.2296C70.1415 34.0674 72.2039 32.9856 75.1174 32.984C77.1814 32.947 79.1803 33.7066 80.6989 35.1049C82.2578 36.5203 83.1526 38.8134 83.3833 41.9841L83.9422 49.4714Z" fill="#1A202C"/>
<path d="M107.312 49.4714C107.339 50.2649 107.646 51.0234 108.177 51.6133C108.752 52.3147 109.042 52.8479 109.042 53.1939V53.367C109.042 53.9141 108.71 54.1877 108.046 54.1877H101.859C101.109 54.1877 100.734 53.8276 100.734 53.1074V52.7169C99.3751 53.9859 97.6151 54.6203 95.4545 54.6203C94.1227 54.6422 92.7998 54.3992 91.5626 53.9054C90.3254 53.4117 89.1987 52.6771 88.2479 51.7442C86.2432 49.8252 85.2408 47.1752 85.2408 43.794C85.2408 40.6482 86.2541 38.0589 88.2806 36.0262C90.3072 33.9934 92.7156 32.9762 95.506 32.9747C97.2659 32.9747 98.7515 33.3784 99.9628 34.1859V28.4407C99.9726 27.8894 99.7719 27.3551 99.4016 26.9466C99.0516 26.5532 98.6674 26.1917 98.2535 25.8663C97.8653 25.5545 97.6712 25.2295 97.6712 24.8912V24.7556C97.6712 24.2084 98.0009 23.8319 98.665 23.6308L105.416 21.5965C106.685 21.1928 107.32 21.5388 107.321 22.6347L107.312 49.4714ZM97.1849 52.4995C97.5661 52.5156 97.9454 52.4371 98.2889 52.271C98.6324 52.105 98.9295 51.8565 99.1537 51.5478C99.6869 50.8853 99.9534 49.9913 99.9534 48.8658V40.5134C99.9665 39.1712 99.5494 37.86 98.7632 36.7721C97.9698 35.6637 97.0687 35.1088 96.0602 35.1072C93.9245 35.1072 92.785 36.8812 92.6416 40.4292C92.6004 42.0098 92.7235 43.5903 93.0087 45.1455C93.2938 46.876 93.8179 48.5585 94.566 50.1448C95.3018 51.6865 96.1747 52.4714 97.1849 52.4995Z" fill="#1A202C"/>
<path d="M144.745 49.4293C144.916 50.2074 145.256 50.9385 145.741 51.5712C146.26 52.2773 146.519 52.8183 146.519 53.194V53.367C146.519 53.9141 146.173 54.1877 145.481 54.1877H136.481C135.789 54.1877 135.443 53.9141 135.443 53.367V53.194C135.443 52.904 135.731 52.3919 136.308 51.6577C136.885 50.9235 137.101 50.1807 136.956 49.4293L134.36 34.3262L128.601 52.89C128.311 53.7271 127.792 54.1456 127.044 54.1456C126.207 54.1456 125.6 53.7419 125.224 52.9344L118.443 33.6341L116.306 49.4293C116.189 50.1776 116.423 50.9126 117.008 51.6343C117.592 52.3561 117.881 52.8759 117.873 53.194V53.367C117.873 53.9141 117.527 54.1877 116.835 54.1877H111.457C110.764 54.1877 110.418 53.9141 110.418 53.367V53.194C110.418 52.8167 110.685 52.2758 111.218 51.5712C111.713 50.9476 112.048 50.2122 112.193 49.4293L115.481 28.2233C115.595 27.475 115.342 26.74 114.723 26.0182C114.104 25.2965 113.792 24.7766 113.788 24.4586V24.2879C113.788 23.7407 114.12 23.4672 114.784 23.4672H120.298C121.481 23.4672 122.26 23.9863 122.636 25.0245L128.115 43.3731L133.313 25.111C133.715 24.0198 134.465 23.4742 135.562 23.4742H141.448C142.112 23.4742 142.444 23.7478 142.444 24.2949V24.468C142.444 24.7579 142.126 25.2778 141.49 26.0276C140.854 26.7774 140.609 27.5413 140.755 28.3191L144.745 49.4293Z" fill="#1A202C"/>
<path d="M163.395 47.3506C163.523 47.2029 163.693 47.0971 163.882 47.0471C164.072 46.9971 164.272 47.005 164.456 47.07C164.845 47.1986 165.025 47.4955 164.997 47.9562C164.939 49.3981 164.103 50.8697 162.488 52.3709C160.873 53.8721 158.781 54.6219 156.212 54.6203C153.066 54.6203 150.498 53.6071 148.509 51.5805C146.52 49.554 145.525 46.9141 145.523 43.6607C145.523 40.543 146.569 37.9826 148.661 35.9794C149.651 35.0054 150.824 34.2379 152.113 33.7217C153.402 33.2054 154.781 32.9507 156.169 32.9724C158.793 32.9724 160.827 33.578 162.27 34.7892C163.714 36.0005 164.435 37.3707 164.435 38.9C164.435 40.1143 163.873 41.0091 162.747 41.5843L154.135 46.4316C155.318 48.3023 156.963 49.2376 159.069 49.2376C159.941 49.2433 160.805 49.059 161.599 48.6974C162.303 48.4096 162.921 47.9458 163.395 47.3506ZM155.391 35.1049C154.526 35.1049 153.824 35.5375 153.286 36.4027C152.749 37.2678 152.482 38.3497 152.487 39.6482C152.458 41.1875 152.677 42.7215 153.134 44.1915L157.159 41.769C157.52 41.5289 157.814 41.1996 158.011 40.813C158.209 40.4264 158.303 39.9954 158.286 39.5617C158.269 38.5401 158.025 37.5352 157.57 36.6201C157.099 35.61 156.373 35.1049 155.391 35.1049Z" fill="#1A202C"/>
<path d="M16.0354 54.1877C15.3433 54.1877 14.9972 53.9141 14.9972 53.367V53.1939C14.9972 52.8479 15.2856 52.321 15.8624 51.6133C16.3939 51.0234 16.7003 50.2649 16.7275 49.4714V28.1812C16.6999 27.3877 16.3936 26.6293 15.8624 26.0393C15.2848 25.3378 14.9972 24.8047 14.9972 24.4586V24.2879C14.9972 23.7407 15.3433 23.4672 16.0354 23.4672H25.5546C26.2467 23.4672 26.5928 23.7407 26.5928 24.2879V24.4609C26.5928 24.807 26.2701 25.3355 25.6201 26.0416C24.97 26.7478 24.6473 27.4633 24.6473 28.1835V48.349C24.6236 49.0495 24.8084 49.7412 25.1781 50.3366C25.3453 50.6013 25.5797 50.8169 25.8573 50.9615C26.135 51.1061 26.4461 51.1745 26.7588 51.1596H30.7947C31.6335 51.1464 32.4336 50.8047 33.0231 50.2079C33.674 49.6079 34.2028 48.8878 34.5804 48.0871C34.9216 47.342 35.3343 46.6317 35.8127 45.9663C36.2804 45.3318 36.7278 45.0146 37.1549 45.0146H37.7605C38.4807 45.0146 38.7707 45.3747 38.6257 46.0972L37.5103 52.8151C37.3373 53.738 36.8322 54.1994 35.9951 54.1994L16.0354 54.1877Z" fill="#1A202C"/>
</svg>
