<svg width="190" height="141" viewBox="0 0 190 141" fill="none" xmlns="http://www.w3.org/2000/svg">
<path d="M57.5 70.2309C57.5118 84.6549 74.3211 96.3637 95.0294 96.3637C115.738 96.2989 132.518 84.596 132.5 70.1661C132.488 55.7422 115.685 44.0981 94.9705 44.0981C74.2622 44.0981 57.4882 55.8011 57.5 70.2309ZM126.139 70.1661C126.151 81.3684 112.222 90.4799 95.0236 90.4799C77.8255 90.4799 63.8727 81.4273 63.8609 70.2309C63.855 59.0934 77.7843 49.982 94.9764 49.982C112.174 49.9172 126.127 59.0286 126.139 70.1661Z" fill="#1F2937"/>
<path d="M106.173 64.0933C104.394 63.0155 102.127 62.509 99.9829 62.8918C99.3762 63.0155 98.8167 63.204 98.2748 63.522C97.6152 63.9049 97.1205 64.4114 96.6728 64.9768C96.3371 65.4833 96.1486 65.9898 96.025 66.5611C95.8424 67.3798 95.8895 68.1396 96.0898 69.0289C96.6434 71.3083 99.0876 71.8089 100.978 72.6335C101.308 72.763 101.644 72.9515 101.803 73.3285C101.997 73.7113 101.962 74.2178 101.608 74.53C101.32 74.7832 100.896 74.848 100.566 74.9128C99.0228 75.0365 97.4385 74.4063 96.1015 73.6465L96.131 77.6339C96.8201 78.0108 97.4032 78.1404 98.0805 78.3288C100.79 79.2123 104.088 78.959 105.937 76.4912C106.874 75.2308 107.092 73.6465 106.573 72.1917C106.297 71.432 105.837 70.8018 105.136 70.3541C104.553 69.9124 103.976 69.6591 103.34 69.3411C102.415 68.9642 101.29 68.9642 100.607 68.1396C100.448 67.9511 100.436 67.5742 100.531 67.3209C100.643 67.0029 100.76 66.8792 101.061 66.7496C101.697 66.4964 102.339 66.5611 102.998 66.6848C104.112 66.8144 105.207 67.4446 106.22 67.8863L106.173 64.0933ZM93.9753 64.0933C92.2025 63.0155 89.935 62.5738 87.7911 62.8918C87.1845 63.0155 86.6308 63.2688 86.0831 63.5868C85.4234 63.9049 84.9228 64.4114 84.4811 65.0416C84.1454 65.4833 83.9569 65.9898 83.8332 66.5611C83.6506 67.3798 83.6977 68.2044 83.898 69.0289C84.4457 71.3083 86.8959 71.8737 88.7806 72.6335C89.1163 72.763 89.452 72.9515 89.611 73.3285C89.7995 73.7113 89.7701 74.2178 89.4167 74.53C89.1222 74.7832 88.6981 74.9128 88.3742 74.9128C86.8252 75.0365 85.2467 74.4711 83.9098 73.6465C83.9098 73.7113 83.9333 77.6986 83.9333 77.6339C84.6283 78.0108 85.2055 78.1404 85.8828 78.3936C88.598 79.2123 91.8963 79.0238 93.7456 76.556C94.6821 75.2897 94.9 73.7113 94.3817 72.2565C94.1049 71.4967 93.6396 70.8607 92.9446 70.3541C92.3557 69.9772 91.7843 69.6591 91.1483 69.4059C90.2236 69.0289 89.0986 68.9642 88.4095 68.1396C88.2564 67.9511 88.2446 67.5742 88.3389 67.3209C88.4449 67.0677 88.5686 66.8792 88.863 66.7496C89.505 66.4964 90.1411 66.6259 90.8067 66.6848C91.9257 66.8144 93.0212 67.4446 94.0342 67.8863L93.9753 64.0933ZM82.4491 59.411C80.2876 58.1447 77.5724 57.7678 75.0987 58.5216C73.4731 59.0282 72.0714 60.0412 71.3882 61.6255C71.0525 62.3205 70.8758 63.1451 70.8934 63.9638C70.9347 65.8014 72.148 67.2561 73.6675 68.2044C73.4614 68.4576 73.1374 68.5224 72.8488 68.7109C72.3718 69.0289 72.0007 69.4059 71.6532 69.8476C71.0525 70.5485 70.6755 71.3672 70.5813 72.3154C70.4929 73.14 70.4988 74.0234 70.7874 74.7832C71.5178 76.8093 73.2729 78.2641 75.458 78.6469C76.4769 78.8354 77.4252 78.9002 78.4205 78.7706C79.2215 78.7058 79.8989 78.5821 80.6586 78.3288C81.2417 78.1993 81.707 78.0108 82.2489 77.6986C82.2489 77.6339 81.6893 74.0234 81.707 74.0234C80.2169 74.2767 78.6443 74.9128 77.166 74.2767C76.2649 73.9645 75.9822 72.9515 76.1294 72.0622C76.2531 71.2435 76.8244 70.737 77.5135 70.4837C78.7032 70.042 80.0402 70.1657 81.2947 70.1657L81.2476 66.6848C80.2817 66.8144 79.2274 66.7496 78.1437 66.5611C77.8021 66.4964 77.4958 66.3727 77.1896 66.1783C76.8951 65.9251 76.6948 65.6718 76.5417 65.4185C76.2295 64.7883 76.206 64.1581 76.5181 63.5868C77.6195 61.6255 80.2581 62.4442 81.9838 63.0803L82.4491 59.411ZM114.336 66.5611C112.999 66.5611 112.116 68.0159 112.169 70.737C112.222 73.458 113.152 74.9128 114.489 74.9128C115.832 74.9128 116.775 73.3932 116.722 70.737C116.674 67.8863 115.679 66.4964 114.336 66.5611ZM114.389 62.6975C117.994 62.6386 120.95 64.5999 121.062 70.6074C121.168 76.4323 118.288 78.7706 114.678 78.8354C111.073 78.9002 108.111 76.8741 108.005 70.8607C107.899 64.9768 110.785 62.7623 114.389 62.6975Z" fill="#9CA3AF"/>
</svg>
