<svg width="181" height="76" viewBox="0 0 181 76" fill="none" xmlns="http://www.w3.org/2000/svg">
<path d="M79.7077 38.7481C79.2984 38.2101 78.7586 37.931 78.0888 37.931C77.6237 37.931 77.0655 38.1503 77.0655 38.7283C77.0655 40.1633 81.7731 38.9476 81.7731 42.6349C81.7731 45.1065 79.5401 45.8241 77.6051 45.8241C76.3399 45.8241 74.9442 45.4852 74.051 44.5086L75.7443 42.4954C76.2654 43.1729 76.8793 43.5518 77.7167 43.5518C78.3493 43.5518 78.982 43.3724 78.982 42.8541C78.982 41.2995 74.2744 42.6148 74.2744 38.9274C74.2744 36.6553 76.1724 35.6587 78.0702 35.6587C79.2612 35.6587 80.5821 35.9776 81.4195 36.9344L79.7077 38.7481Z" fill="#1F2937"/>
<path d="M89.3647 38.2885H86.9088V41.5174C86.9088 42.5538 87.0203 43.3113 88.2298 43.3113C88.5275 43.3113 89.123 43.2715 89.3647 43.0322V45.5236C88.7507 45.7629 88.0622 45.8227 87.4111 45.8227C85.5503 45.8227 84.1176 45.0056 84.1176 42.8927V38.2885H82.3313V35.8965H84.1176V33.0265H86.9086V35.8965H89.3646V38.2885H89.3647Z" fill="#1F2937"/>
<path d="M99.3368 43.9104C98.4436 45.1263 96.9737 45.8239 95.5224 45.8239C92.7313 45.8239 90.4984 43.8307 90.4984 40.7413C90.4984 37.6519 92.7313 35.6587 95.5224 35.6587C98.1274 35.6587 99.7649 37.6519 99.7649 40.7413V41.6781H93.2895C93.5129 42.8143 94.313 43.5518 95.3921 43.5518C96.304 43.5518 96.918 43.0535 97.3831 42.3758L99.3368 43.9104ZM96.9737 39.6449C96.9923 38.6483 96.2665 37.8113 95.2619 37.8113C94.0336 37.8113 93.3638 38.7081 93.2894 39.6449H96.9737Z" fill="#1F2937"/>
<path d="M101.458 35.8978H104.25V37.4526H104.287C104.882 36.2766 105.664 35.6587 106.892 35.6587C107.208 35.6587 107.562 35.6785 107.822 35.7583V38.489C107.432 38.3694 107.041 38.2897 106.631 38.2897C104.51 38.2897 104.25 39.6052 104.25 41.5386V45.5846H101.458V35.8978Z" fill="#1F2937"/>
<path d="M118 45.5838H115.433V44.3081H115.395C114.967 45.0058 113.888 45.8229 112.623 45.8229C109.944 45.8229 108.176 43.7499 108.176 40.8199C108.176 38.1292 109.739 35.6578 112.307 35.6578C113.46 35.6578 114.54 35.9966 115.172 36.9334H115.209V30.5153H118V45.5838ZM113.2 38.2889C111.804 38.2889 110.967 39.2855 110.967 40.7405C110.967 42.1955 111.804 43.1921 113.2 43.1921C114.595 43.1921 115.433 42.1955 115.433 40.7405C115.433 39.2855 114.595 38.2889 113.2 38.2889Z" fill="#1F2937"/>
<path d="M125.908 44.369H125.87C125.256 45.4056 124.14 45.8241 123.005 45.8241C121.312 45.8241 119.786 44.7877 119.786 42.8342C119.786 39.4858 123.581 39.426 125.907 39.426C125.907 38.3696 125.089 37.6919 124.121 37.6919C123.209 37.6919 122.446 38.1303 121.851 38.848L120.363 37.2135C121.386 36.1769 122.874 35.6587 124.344 35.6587C127.601 35.6587 128.475 37.4328 128.475 40.6617V45.5849H125.907V44.369H125.908ZM125.219 41.3393C124.363 41.3393 122.465 41.419 122.465 42.7345C122.465 43.452 123.172 43.7909 123.786 43.7909C124.884 43.7909 125.908 43.1729 125.908 41.9772V41.3393H125.219Z" fill="#1F2937"/>
<path d="M130.039 35.8977H132.719V37.2133H132.756C133.128 36.4558 134.04 35.6587 135.398 35.6587C136.663 35.6587 137.705 36.2169 138.189 37.3928C138.84 36.1571 139.715 35.6587 141.055 35.6587C143.511 35.6587 144.255 37.5122 144.255 39.8644V45.5848H141.464V39.944C141.464 39.0472 141.148 38.2897 140.236 38.2897C138.952 38.2897 138.543 39.2663 138.543 40.4622V45.5846H135.752V40.4622C135.752 39.7447 135.789 38.2897 134.505 38.2897C133.053 38.2897 132.83 39.5054 132.83 40.7613V45.5846H130.039V35.8977Z" fill="#1F2937"/>
<path d="M42.0648 43.9072H41.0228V33.0443H42.0648V31.3901H37.0781V33.0443H38.1201V43.9072H37.0781V45.5813H38.1201H41.0228H42.0648V43.9072Z" fill="#9CA3AF"/>
<path d="M58.5886 45.5825H61.3797V40.7591C61.3797 39.5035 61.6029 38.2877 63.0544 38.2877C64.3382 38.2877 64.3011 39.7427 64.3011 40.4602V45.5825H67.092V40.4602C67.092 39.2643 67.5015 38.2877 68.7853 38.2877C69.6972 38.2877 70.0135 39.045 70.0135 39.942V45.5827H72.8045V39.8622C72.8045 37.5102 72.0602 35.6566 69.6041 35.6566C68.2644 35.6566 67.3898 36.1549 66.7385 37.3908C66.2548 36.2149 65.2126 35.6566 63.9476 35.6566C62.5893 35.6566 61.6774 36.4538 61.3053 37.2113H61.2681V35.8957H58.5886V43.9082H57.3977V40.6395C57.3977 37.4105 56.5232 35.6366 53.267 35.6366C51.7971 35.6366 50.3085 36.1548 49.285 37.1912L50.7736 38.8257C51.369 38.1082 52.1319 37.6697 53.0436 37.6697C54.0111 37.6697 54.8299 38.3474 54.8299 39.4038C52.504 39.4038 48.7081 39.4636 48.7081 42.812C48.7081 44.7652 50.234 45.8018 51.9272 45.8018C53.0623 45.8018 54.1787 45.3832 54.7927 44.3468H54.83V45.5625H57.3979L58.5886 45.5825ZM54.83 41.975C54.83 43.1707 53.8066 43.7886 52.7088 43.7886C52.0947 43.7886 51.3878 43.4498 51.3878 42.7323C51.3878 41.4168 53.2856 41.337 54.1415 41.337H54.83V41.975Z" fill="#9CA3AF"/>
</svg>
