<svg width="180" height="76" viewBox="0 0 180 76" fill="none" xmlns="http://www.w3.org/2000/svg">
<path d="M96.8679 15.8613V27.0155C96.8679 27.5264 96.4718 27.867 96.0756 27.867C95.6002 27.867 95.2832 27.4412 95.2832 27.0155V15.8613C95.2832 15.3504 95.6794 15.0098 96.0756 15.0098C96.551 15.0098 96.8679 15.4356 96.8679 15.8613ZM80.8623 18.4157H78.4852V15.8613C78.4852 15.3504 78.1683 15.0098 77.6929 14.9247C77.2175 15.0098 76.8213 15.3504 76.8213 15.8613V26.9304C76.8213 27.4412 77.1382 27.7818 77.6136 27.867C78.0891 27.867 78.4852 27.5264 78.4852 27.0155V20.1186H80.8623C81.3377 20.1186 81.6547 19.6929 81.6547 19.2672C81.6547 18.7563 81.2585 18.4157 80.8623 18.4157ZM90.1329 23.1839C90.1329 21.3107 88.9444 19.9483 87.3596 19.9483C85.7749 19.9483 84.5072 21.3107 84.5072 23.1839C84.5072 25.0571 85.7749 26.4195 87.3596 26.4195C88.9444 26.4195 90.1329 25.0571 90.1329 23.1839ZM87.2804 28.0373C84.7449 28.0373 82.9224 25.7383 82.9224 23.0988C82.9224 20.4592 84.7449 18.1603 87.2804 18.1603C88.3897 18.1603 89.4198 18.6711 90.1329 19.5226V19.2672C90.1329 18.7563 90.5291 18.4157 90.9253 18.4157C91.4007 18.4157 91.7176 18.8414 91.7176 19.2672V27.0155C91.7176 27.5264 91.3214 27.867 90.9253 27.867C90.4498 27.867 90.1329 27.4412 90.1329 27.0155V26.7601C89.4198 27.6115 88.3897 28.0373 87.2804 28.0373ZM118.737 23.1839C118.737 21.3107 117.548 19.9483 115.964 19.9483C114.379 19.9483 113.111 21.3107 113.111 23.1839C113.111 25.0571 114.379 26.4195 115.964 26.4195C117.548 26.4195 118.737 25.0571 118.737 23.1839ZM115.885 28.0373C113.349 28.0373 111.527 25.7383 111.527 23.0988C111.527 20.4592 113.349 18.1603 115.885 18.1603C116.994 18.1603 118.024 18.6711 118.737 19.5226V19.2672C118.737 18.7563 119.133 18.4157 119.529 18.4157C119.926 18.4157 120.322 18.8414 120.322 19.2672V27.0155C120.322 27.5264 119.926 27.867 119.529 27.867C119.133 27.867 118.737 27.4412 118.737 27.0155V26.7601C118.024 27.6115 116.994 28.0373 115.885 28.0373ZM104.792 26.4195C106.376 26.4195 107.644 25.0571 107.644 23.1839C107.644 21.3107 106.376 19.9483 104.792 19.9483C103.207 19.9483 102.018 21.3107 102.018 23.1839C102.018 25.0571 103.207 26.4195 104.792 26.4195ZM102.018 26.7601V30.6768C102.018 31.1877 101.622 31.5283 101.226 31.5283C100.83 31.5283 100.434 31.1026 100.434 30.6768V19.2672C100.434 18.7563 100.83 18.4157 101.226 18.4157C101.622 18.4157 102.018 18.8414 102.018 19.2672V19.5226C102.811 18.6711 103.761 18.1603 104.871 18.1603C107.406 18.1603 109.229 20.4592 109.229 23.0988C109.229 25.7383 107.406 28.0373 104.871 28.0373C103.761 28.0373 102.811 27.6115 102.018 26.7601ZM101.622 39.3618H99.7204V36.8074C99.7204 36.2965 99.4035 35.9559 98.9281 35.8708C98.4527 35.8708 98.0565 36.2114 98.0565 36.7222V47.7913C98.0565 48.3022 98.3734 48.6428 98.8488 48.7279C99.3242 48.7279 99.7204 48.3873 99.7204 47.8765V40.9796H101.622C102.097 40.9796 102.414 40.5538 102.414 40.1281C102.414 39.7024 102.018 39.3618 101.622 39.3618ZM122.54 48.9834C120.005 48.9834 118.024 46.6844 118.024 44.0449C118.024 41.4053 120.005 39.1063 122.54 39.1063C125.076 39.1063 127.057 41.4053 127.057 44.0449C127.057 46.6844 125.076 48.9834 122.54 48.9834ZM122.54 47.3656C124.125 47.3656 125.393 46.0032 125.393 44.13C125.393 42.2568 124.046 40.8944 122.54 40.8944C120.956 40.8944 119.688 42.2568 119.688 44.13C119.688 46.0032 120.956 47.3656 122.54 47.3656ZM95.6002 44.13C95.6002 41.4905 94.0154 39.1915 91.4799 39.1915C88.9444 39.1915 87.0427 41.4905 87.0427 44.13C87.0427 46.7696 88.9444 49.0685 91.4799 49.0685C92.6684 49.0685 93.857 48.7279 94.6493 47.8765C94.9663 47.5359 94.9663 47.025 94.7286 46.7695C94.4116 46.429 94.0154 46.5141 93.6985 46.7695C93.1439 47.1953 92.2723 47.4507 91.4799 47.4507C90.1329 47.4507 89.0236 46.429 88.7067 45.0666H94.8078C95.2832 44.8963 95.6002 44.5557 95.6002 44.13ZM91.4799 40.8944C92.8269 40.8944 93.7777 41.9162 93.9362 43.3637H88.7067C89.0236 41.9162 90.1329 40.8944 91.4799 40.8944ZM143.379 47.4507L140.765 43.8746L143.221 40.8093C143.538 40.4687 143.459 39.8727 143.142 39.6172C142.825 39.2766 142.27 39.3618 142.032 39.7024L139.418 43.1082H137.991V36.8925C137.991 36.3817 137.595 36.0411 137.199 36.0411C136.724 36.0411 136.407 36.4668 136.407 36.8925V48.0467C136.407 48.5576 136.803 48.8982 137.199 48.8982C137.674 48.8982 137.991 48.4725 137.991 48.0467V44.8112H139.418L142.27 48.6428C142.508 48.9834 143.062 49.0685 143.379 48.8131C143.617 48.3873 143.696 47.7913 143.379 47.4507Z" fill="#1F2937"/>
<path d="M40.9276 25.1441C43.4219 25.1441 45.444 22.9711 45.444 20.2907C45.444 17.6103 43.4219 15.4374 40.9276 15.4374C38.4332 15.4374 36.4111 17.6103 36.4111 20.2907C36.4111 22.9711 38.4332 25.1441 40.9276 25.1441Z" fill="#1F2937"/>
<path d="M52.0981 25.1441C54.5925 25.1441 56.6146 22.9711 56.6146 20.2907C56.6146 17.6103 54.5925 15.4374 52.0981 15.4374C49.6037 15.4374 47.5817 17.6103 47.5817 20.2907C47.5817 22.9711 49.6037 25.1441 52.0981 25.1441Z" fill="#1F2937"/>
<path d="M63.351 25.1441C65.8454 25.1441 67.8675 22.9711 67.8675 20.2907C67.8675 17.6103 65.8454 15.4374 63.351 15.4374C60.8567 15.4374 58.8346 17.6103 58.8346 20.2907C58.8346 22.9711 60.8567 25.1441 63.351 25.1441Z" fill="#1F2937"/>
<path d="M40.9276 37.2352C43.4219 37.2352 45.444 35.0623 45.444 32.3819C45.444 29.7015 43.4219 27.5286 40.9276 27.5286C38.4332 27.5286 36.4111 29.7015 36.4111 32.3819C36.4111 35.0623 38.4332 37.2352 40.9276 37.2352Z" fill="#1F2937"/>
<path d="M52.0981 37.2352C54.5925 37.2352 56.6146 35.0623 56.6146 32.3819C56.6146 29.7015 54.5925 27.5286 52.0981 27.5286C49.6037 27.5286 47.5817 29.7015 47.5817 32.3819C47.5817 35.0623 49.6037 37.2352 52.0981 37.2352Z" fill="#1F2937"/>
<path d="M63.351 37.2352C65.8454 37.2352 67.8675 35.0623 67.8675 32.3819C67.8675 29.7015 65.8454 27.5286 63.351 27.5286C60.8567 27.5286 58.8346 29.7015 58.8346 32.3819C58.8346 35.0623 60.8567 37.2352 63.351 37.2352Z" fill="#1F2937"/>
<path d="M40.9276 49.3228C43.4219 49.3228 45.444 47.1499 45.444 44.4694C45.444 41.789 43.4219 39.6161 40.9276 39.6161C38.4332 39.6161 36.4111 41.789 36.4111 44.4694C36.4111 47.1499 38.4332 49.3228 40.9276 49.3228Z" fill="#1F2937"/>
<path d="M52.0981 49.3228C54.5925 49.3228 56.6146 47.1499 56.6146 44.4694C56.6146 41.789 54.5925 39.6161 52.0981 39.6161C49.6037 39.6161 47.5817 41.789 47.5817 44.4694C47.5817 47.1499 49.6037 49.3228 52.0981 49.3228Z" fill="#1F2937"/>
<path d="M63.351 49.3228C65.8454 49.3228 67.8675 47.1499 67.8675 44.4694C67.8675 41.789 65.8454 39.6161 63.351 39.6161C60.8567 39.6161 58.8346 41.789 58.8346 44.4694C58.8346 47.1499 60.8567 49.3228 63.351 49.3228Z" fill="#1F2937"/>
<path d="M52.0981 61.4138C54.5925 61.4138 56.6146 59.2409 56.6146 56.5605C56.6146 53.8801 54.5925 51.7072 52.0981 51.7072C49.6037 51.7072 47.5817 53.8801 47.5817 56.5605C47.5817 59.2409 49.6037 61.4138 52.0981 61.4138Z" fill="#1F2937"/>
<path d="M76.8213 47.9616V43.3636C76.8213 40.8092 78.5645 39.1914 80.8623 39.1914C83.0809 39.1914 84.9033 40.8092 84.9033 43.3636V47.9616C84.9033 48.4725 84.5072 48.8131 84.111 48.8131C83.6356 48.8131 83.3186 48.3873 83.3186 47.9616V43.4488C83.3186 41.831 82.2093 40.8092 80.9415 40.8092C79.5945 40.8092 78.4852 41.831 78.4852 43.4488V47.9616C78.4852 48.4725 78.0891 48.8131 77.6929 48.8131C77.2175 48.8131 76.8213 48.4725 76.8213 47.9616ZM106.139 47.621C106.297 48.3022 106.693 48.8131 107.406 48.8131C108.119 48.8131 108.436 48.217 108.595 47.621L110.338 41.831L112.081 47.621C112.24 48.3022 112.636 48.8131 113.27 48.8131C113.983 48.8131 114.3 48.217 114.537 47.621L116.756 40.5538C116.915 40.128 116.677 39.6171 116.281 39.4468C115.885 39.2766 115.409 39.532 115.251 39.9577L113.27 46.4289L111.527 40.4686C111.368 39.7874 111.13 39.3617 110.338 39.3617C109.546 39.3617 109.387 39.7874 109.149 40.4686L107.406 46.4289L105.346 39.9577C105.188 39.532 104.712 39.2766 104.316 39.4468C103.92 39.6171 103.682 40.128 103.841 40.5538L106.139 47.621ZM133.713 39.3617C134.109 39.3617 134.505 39.7023 134.505 40.2132C134.505 40.6389 134.188 41.0647 133.713 41.0647H132.366C131.494 41.0647 130.781 41.831 130.781 42.7676V47.9616C130.781 48.4725 130.385 48.8131 129.988 48.8131C129.513 48.8131 129.196 48.3873 129.196 47.9616V42.7676C129.196 40.8944 130.622 39.4468 132.286 39.4468H133.713V39.3617Z" fill="#1F2937"/>
</svg>
